%TF.GenerationSoftware,KiCad,Pcbnew,10.0.4-10.0.4~ubuntu26.04.1*%
%TF.CreationDate,2026-07-20T12:17:22-07:00*%
%TF.ProjectId,Bahbahbahbahbah,42616862-6168-4626-9168-626168626168,rev?*%
%TF.SameCoordinates,Original*%
%TF.FileFunction,Copper,L2,Bot*%
%TF.FilePolarity,Positive*%
%FSLAX46Y46*%
G04 Gerber Fmt 4.6, Leading zero omitted, Abs format (unit mm)*
G04 Created by KiCad (PCBNEW 10.0.4-10.0.4~ubuntu26.04.1) date 2026-07-20 12:17:22*
%MOMM*%
%LPD*%
G01*
G04 APERTURE LIST*
%TA.AperFunction,Conductor*%
%ADD10C,0.700000*%
%TD*%
%TA.AperFunction,ComponentPad*%
%ADD11O,1.700000X1.100000*%
%TD*%
%TA.AperFunction,ComponentPad*%
%ADD12R,1.700000X1.700000*%
%TD*%
%TA.AperFunction,ComponentPad*%
%ADD13C,1.700000*%
%TD*%
%TA.AperFunction,ComponentPad*%
%ADD14R,1.500000X3.000000*%
%TD*%
%TA.AperFunction,ComponentPad*%
%ADD15O,1.500000X3.000000*%
%TD*%
%TA.AperFunction,ViaPad*%
%ADD16C,0.600000*%
%TD*%
%TA.AperFunction,Conductor*%
%ADD17C,0.200000*%
%TD*%
G04 APERTURE END LIST*
%TO.N,Net-(J6-Pin_1)*%
D10*
X204000000Y-71750000D02*
X190750000Y-83250000D01*
%TO.N,Net-(J6-Pin_2)*%
X209000000Y-72000000D02*
X190750000Y-85750000D01*
%TD*%
D11*
%TO.P,J1,SH,SHIELD_SH*%
%TO.N,unconnected-(J1-SHIELD-PadSH)_3*%
X204980000Y-92920000D03*
%TO.N,unconnected-(J1-SHIELD-PadSH)*%
X208780000Y-92920000D03*
%TO.N,unconnected-(J1-SHIELD-PadSH)_1*%
X204980000Y-84280000D03*
%TO.N,unconnected-(J1-SHIELD-PadSH)_2*%
X208780000Y-84280000D03*
%TD*%
D12*
%TO.P,J7,1,Pin_1_1*%
%TO.N,Net-(J7-Pin_1)*%
X190775000Y-90000000D03*
D13*
%TO.P,J7,2,Pin_2_2*%
%TO.N,GND*%
X190775000Y-92540000D03*
%TD*%
D14*
%TO.P,U5,1,-VIN_1*%
%TO.N,GND*%
X196280000Y-71845000D03*
D15*
%TO.P,U5,2,+VIN_2*%
%TO.N,Net-(J7-Pin_1)*%
X198820000Y-71845000D03*
%TO.P,U5,4,+VOUT_4*%
%TO.N,Net-(J6-Pin_1)*%
X203900000Y-71845000D03*
%TO.P,U5,6,-VOUT_6*%
%TO.N,Net-(J6-Pin_2)*%
X208980000Y-71845000D03*
%TD*%
D12*
%TO.P,J2,1,Pin_1_1*%
%TO.N,Net-(J2-Pin_1)*%
X190775000Y-61675000D03*
D13*
%TO.P,J2,2,Pin_2_2*%
%TO.N,GND*%
X190775000Y-64215000D03*
%TD*%
D12*
%TO.P,J3,1,Pin_1_1*%
%TO.N,Net-(J3-Pin_1)*%
X190775000Y-68825000D03*
D13*
%TO.P,J3,2,Pin_2_2*%
%TO.N,GND*%
X190775000Y-71365000D03*
%TD*%
D14*
%TO.P,U4,1,-VIN_1*%
%TO.N,GND*%
X196280000Y-62675000D03*
D15*
%TO.P,U4,2,+VIN_2*%
%TO.N,Net-(J7-Pin_1)*%
X198820000Y-62675000D03*
%TO.P,U4,4,+VOUT_4*%
%TO.N,Net-(J5-Pin_1)*%
X203900000Y-62675000D03*
%TO.P,U4,6,-VOUT_6*%
%TO.N,Net-(J5-Pin_2)*%
X208980000Y-62675000D03*
%TD*%
D12*
%TO.P,J5,1,Pin_1_1*%
%TO.N,Net-(J5-Pin_1)*%
X190775000Y-75975000D03*
D13*
%TO.P,J5,2,Pin_2_2*%
%TO.N,Net-(J5-Pin_2)*%
X190775000Y-78515000D03*
%TD*%
D12*
%TO.P,J6,1,Pin_1_1*%
%TO.N,Net-(J6-Pin_1)*%
X190775000Y-83125000D03*
D13*
%TO.P,J6,2,Pin_2_2*%
%TO.N,Net-(J6-Pin_2)*%
X190775000Y-85665000D03*
%TD*%
D16*
%TO.N,GND*%
X208680000Y-80310000D03*
X208680000Y-78330000D03*
%TO.N,Net-(J1-CC2)*%
X203990000Y-88080000D03*
%TO.N,Net-(J1-CC1)*%
X203395000Y-89100000D03*
%TO.N,Net-(J1-CC2)*%
X205850000Y-81400000D03*
%TO.N,Net-(J1-CC1)*%
X205840000Y-79210000D03*
%TO.N,GND*%
X196320000Y-74500000D03*
X190760000Y-73160000D03*
X192020000Y-93790000D03*
X189660000Y-65300000D03*
X194300000Y-62680000D03*
%TO.N,Net-(J7-Pin_1)*%
X194125000Y-86000000D03*
X191900000Y-88100000D03*
X199300000Y-70000000D03*
%TO.N,Net-(J3-Pin_1)*%
X194350000Y-77750000D03*
%TO.N,Net-(J5-Pin_2)*%
X193200000Y-73600000D03*
%TD*%
%TO.N,GND*%
D10*
X190775000Y-71365000D02*
X190775000Y-73145000D01*
D17*
X190775000Y-64215000D02*
X190745000Y-64215000D01*
X190775000Y-73145000D02*
X190760000Y-73160000D01*
D10*
X196280000Y-62675000D02*
X194305000Y-62675000D01*
X190745000Y-64215000D02*
X189660000Y-65300000D01*
D17*
X194305000Y-62675000D02*
X194300000Y-62680000D01*
%TO.N,Net-(J7-Pin_1)*%
X198820000Y-62675000D02*
X198820000Y-69520000D01*
X198820000Y-69520000D02*
X199300000Y-70000000D01*
X191900000Y-88100000D02*
X194000000Y-86000000D01*
X194000000Y-86000000D02*
X194125000Y-86000000D01*
%TO.N,Net-(J3-Pin_1)*%
X194448529Y-75600000D02*
X194800000Y-75248529D01*
X194400000Y-74400000D02*
X194400000Y-72450000D01*
X194448529Y-74400000D02*
X194400000Y-74400000D01*
X194400000Y-75600000D02*
X194448529Y-75600000D01*
X194800000Y-75248529D02*
X194800000Y-74751471D01*
X194350000Y-77750000D02*
X194400000Y-77700000D01*
X194400000Y-72450000D02*
X190775000Y-68825000D01*
X194400000Y-77700000D02*
X194400000Y-75600000D01*
X194800000Y-74751471D02*
X194448529Y-74400000D01*
%TO.N,Net-(J5-Pin_1)*%
D10*
X194702082Y-78600000D02*
X192900000Y-78600000D01*
X203900000Y-67300000D02*
X201800000Y-69400000D01*
X189750000Y-80150000D02*
X191350000Y-80150000D01*
X194702082Y-78600000D02*
X201800000Y-71502082D01*
X203900000Y-62675000D02*
X203900000Y-67300000D01*
X190775000Y-75975000D02*
X188900000Y-77850000D01*
X188900000Y-77850000D02*
X188900000Y-79300000D01*
X192900000Y-78600000D02*
X191350000Y-80150000D01*
X188900000Y-79300000D02*
X189750000Y-80150000D01*
X201800000Y-69400000D02*
X201800000Y-71502082D01*
%TO.N,Net-(J5-Pin_2)*%
X190775000Y-78515000D02*
X193200000Y-76090000D01*
X193200000Y-76090000D02*
X193200000Y-73600000D01*
%TO.N,Net-(J1-CC1)*%
D17*
X205840000Y-79210000D02*
X203390000Y-81660000D01*
X203390000Y-89095000D02*
X203395000Y-89100000D01*
X203390000Y-81660000D02*
X203390000Y-89095000D01*
%TO.N,Net-(J1-CC2)*%
X203990000Y-88080000D02*
X204010000Y-88080000D01*
X204010000Y-88080000D02*
X206130000Y-85960000D01*
X206130000Y-85960000D02*
X206130000Y-81680000D01*
X206130000Y-81680000D02*
X205850000Y-81400000D01*
%TD*%
%TA.AperFunction,Conductor*%
%TO.N,GND*%
G36*
X196530000Y-73845000D02*
G01*
X197077828Y-73845000D01*
X197077844Y-73844999D01*
X197137372Y-73838598D01*
X197137379Y-73838596D01*
X197272086Y-73788354D01*
X197272093Y-73788350D01*
X197387187Y-73702190D01*
X197387190Y-73702187D01*
X197473350Y-73587093D01*
X197473354Y-73587086D01*
X197523596Y-73452379D01*
X197523598Y-73452372D01*
X197529999Y-73392844D01*
X197530000Y-73392827D01*
X197530000Y-73328578D01*
X197549685Y-73261539D01*
X197602489Y-73215784D01*
X197671647Y-73205840D01*
X197735203Y-73234865D01*
X197754314Y-73255688D01*
X197866172Y-73409646D01*
X198005354Y-73548828D01*
X198164595Y-73664524D01*
X198164597Y-73664525D01*
X198191505Y-73678236D01*
X198242300Y-73726210D01*
X198259095Y-73794032D01*
X198236557Y-73860166D01*
X198222890Y-73876401D01*
X195212181Y-76887111D01*
X195150858Y-76920596D01*
X195081166Y-76915612D01*
X195025233Y-76873740D01*
X195000816Y-76808276D01*
X195000500Y-76799430D01*
X195000500Y-75948626D01*
X195009145Y-75919182D01*
X195015668Y-75889200D01*
X195019422Y-75884184D01*
X195020185Y-75881587D01*
X195036814Y-75860949D01*
X195168713Y-75729050D01*
X195168716Y-75729049D01*
X195280520Y-75617245D01*
X195330639Y-75530433D01*
X195359577Y-75480314D01*
X195400500Y-75327586D01*
X195400500Y-75169472D01*
X195400500Y-74672414D01*
X195359577Y-74519687D01*
X195359577Y-74519686D01*
X195359577Y-74519685D01*
X195330639Y-74469566D01*
X195330637Y-74469563D01*
X195280520Y-74382755D01*
X195168716Y-74270951D01*
X195168715Y-74270950D01*
X195164385Y-74266620D01*
X195164374Y-74266610D01*
X195036819Y-74139055D01*
X195003334Y-74077732D01*
X195000500Y-74051374D01*
X195000500Y-73820919D01*
X195020185Y-73753880D01*
X195072989Y-73708125D01*
X195142147Y-73698181D01*
X195198811Y-73721653D01*
X195287906Y-73788350D01*
X195287913Y-73788354D01*
X195422620Y-73838596D01*
X195422627Y-73838598D01*
X195482155Y-73844999D01*
X195482172Y-73845000D01*
X196030000Y-73845000D01*
X196030000Y-72278012D01*
X196087007Y-72310925D01*
X196214174Y-72345000D01*
X196345826Y-72345000D01*
X196472993Y-72310925D01*
X196530000Y-72278012D01*
X196530000Y-73845000D01*
G37*
%TD.AperFunction*%
%TA.AperFunction,Conductor*%
G36*
X189618541Y-60220185D02*
G01*
X189664296Y-60272989D01*
X189674240Y-60342147D01*
X189645215Y-60405703D01*
X189625816Y-60423764D01*
X189567454Y-60467454D01*
X189567453Y-60467455D01*
X189567452Y-60467456D01*
X189481206Y-60582664D01*
X189481202Y-60582671D01*
X189430908Y-60717517D01*
X189424501Y-60777116D01*
X189424501Y-60777123D01*
X189424500Y-60777135D01*
X189424500Y-62572870D01*
X189424501Y-62572876D01*
X189430908Y-62632483D01*
X189481202Y-62767328D01*
X189481206Y-62767335D01*
X189567452Y-62882544D01*
X189567455Y-62882547D01*
X189682664Y-62968793D01*
X189682671Y-62968797D01*
X189727618Y-62985561D01*
X189817517Y-63019091D01*
X189877127Y-63025500D01*
X189887685Y-63025499D01*
X189954723Y-63045179D01*
X189975372Y-63061818D01*
X190645591Y-63732037D01*
X190582007Y-63749075D01*
X190467993Y-63814901D01*
X190374901Y-63907993D01*
X190309075Y-64022007D01*
X190292037Y-64085591D01*
X189659728Y-63453282D01*
X189659727Y-63453282D01*
X189620380Y-63507439D01*
X189523904Y-63696782D01*
X189458242Y-63898869D01*
X189458242Y-63898872D01*
X189425000Y-64108753D01*
X189425000Y-64321246D01*
X189458242Y-64531127D01*
X189458242Y-64531130D01*
X189523904Y-64733217D01*
X189620375Y-64922550D01*
X189659728Y-64976716D01*
X190292037Y-64344408D01*
X190309075Y-64407993D01*
X190374901Y-64522007D01*
X190467993Y-64615099D01*
X190582007Y-64680925D01*
X190645590Y-64697962D01*
X190013282Y-65330269D01*
X190013282Y-65330270D01*
X190067449Y-65369624D01*
X190256782Y-65466095D01*
X190458870Y-65531757D01*
X190668754Y-65565000D01*
X190881246Y-65565000D01*
X191091127Y-65531757D01*
X191091130Y-65531757D01*
X191293217Y-65466095D01*
X191482554Y-65369622D01*
X191536716Y-65330270D01*
X191536717Y-65330270D01*
X190904408Y-64697962D01*
X190967993Y-64680925D01*
X191082007Y-64615099D01*
X191175099Y-64522007D01*
X191240925Y-64407993D01*
X191257962Y-64344408D01*
X191890270Y-64976717D01*
X191890270Y-64976716D01*
X191929622Y-64922554D01*
X192026095Y-64733217D01*
X192091757Y-64531130D01*
X192091757Y-64531127D01*
X192125000Y-64321246D01*
X192125000Y-64108753D01*
X192091757Y-63898872D01*
X192091757Y-63898869D01*
X192026095Y-63696782D01*
X191929624Y-63507449D01*
X191890270Y-63453282D01*
X191890269Y-63453282D01*
X191257962Y-64085590D01*
X191240925Y-64022007D01*
X191175099Y-63907993D01*
X191082007Y-63814901D01*
X190967993Y-63749075D01*
X190904409Y-63732037D01*
X191574627Y-63061818D01*
X191635950Y-63028333D01*
X191662307Y-63025499D01*
X191672872Y-63025499D01*
X191732483Y-63019091D01*
X191867331Y-62968796D01*
X191982546Y-62882546D01*
X192068796Y-62767331D01*
X192119091Y-62632483D01*
X192125500Y-62572873D01*
X192125499Y-60777128D01*
X192119091Y-60717517D01*
X192105621Y-60681403D01*
X192068797Y-60582671D01*
X192068793Y-60582664D01*
X191982547Y-60467456D01*
X191982548Y-60467456D01*
X191982546Y-60467454D01*
X191924186Y-60423765D01*
X191882316Y-60367833D01*
X191877332Y-60298141D01*
X191910817Y-60236818D01*
X191972141Y-60203334D01*
X191998498Y-60200500D01*
X210709844Y-60200500D01*
X210751236Y-60200500D01*
X210759860Y-60203032D01*
X210768757Y-60201744D01*
X210792863Y-60212723D01*
X210818275Y-60220185D01*
X210824160Y-60226977D01*
X210832343Y-60230704D01*
X210846688Y-60252975D01*
X210864030Y-60272989D01*
X210866308Y-60283437D01*
X210870177Y-60289443D01*
X210875181Y-60324124D01*
X210875236Y-60324373D01*
X210875236Y-60365892D01*
X210875278Y-60366052D01*
X210875287Y-60374229D01*
X210875284Y-60374236D01*
X210875287Y-60374269D01*
X210899545Y-94875352D01*
X210879908Y-94942405D01*
X210827136Y-94988197D01*
X210775540Y-94999438D01*
X210734193Y-94999437D01*
X210734191Y-94999437D01*
X210725953Y-94999437D01*
X210725909Y-94999440D01*
X180704003Y-94999440D01*
X180703511Y-94999439D01*
X180693558Y-94999399D01*
X180691223Y-94998799D01*
X180649260Y-94999223D01*
X180648305Y-94999220D01*
X180615607Y-94989478D01*
X180582815Y-94980208D01*
X180582214Y-94979529D01*
X180581344Y-94979270D01*
X180559080Y-94953369D01*
X180536529Y-94927869D01*
X180536307Y-94926877D01*
X180535799Y-94926285D01*
X180535165Y-94921748D01*
X180524797Y-94875221D01*
X180524797Y-94826343D01*
X180524744Y-94825546D01*
X180523889Y-93608098D01*
X180523490Y-93040000D01*
X180520725Y-89102135D01*
X189424500Y-89102135D01*
X189424500Y-90897870D01*
X189424501Y-90897876D01*
X189430908Y-90957483D01*
X189481202Y-91092328D01*
X189481206Y-91092335D01*
X189567452Y-91207544D01*
X189567455Y-91207547D01*
X189682664Y-91293793D01*
X189682671Y-91293797D01*
X189727618Y-91310561D01*
X189817517Y-91344091D01*
X189877127Y-91350500D01*
X189887685Y-91350499D01*
X189954723Y-91370179D01*
X189975372Y-91386818D01*
X190645591Y-92057037D01*
X190582007Y-92074075D01*
X190467993Y-92139901D01*
X190374901Y-92232993D01*
X190309075Y-92347007D01*
X190292037Y-92410591D01*
X189659728Y-91778282D01*
X189659727Y-91778282D01*
X189620380Y-91832439D01*
X189523904Y-92021782D01*
X189458242Y-92223869D01*
X189458242Y-92223872D01*
X189425000Y-92433753D01*
X189425000Y-92646246D01*
X189458242Y-92856127D01*
X189458242Y-92856130D01*
X189523904Y-93058217D01*
X189620375Y-93247550D01*
X189659728Y-93301716D01*
X190292037Y-92669408D01*
X190309075Y-92732993D01*
X190374901Y-92847007D01*
X190467993Y-92940099D01*
X190582007Y-93005925D01*
X190645590Y-93022962D01*
X190013282Y-93655269D01*
X190013282Y-93655270D01*
X190067449Y-93694624D01*
X190256782Y-93791095D01*
X190458870Y-93856757D01*
X190668754Y-93890000D01*
X190881246Y-93890000D01*
X191091127Y-93856757D01*
X191091130Y-93856757D01*
X191293217Y-93791095D01*
X191482554Y-93694622D01*
X191536716Y-93655270D01*
X191536717Y-93655270D01*
X190904408Y-93022962D01*
X190967993Y-93005925D01*
X191082007Y-92940099D01*
X191175099Y-92847007D01*
X191240925Y-92732993D01*
X191257962Y-92669408D01*
X191890270Y-93301717D01*
X191890270Y-93301716D01*
X191929622Y-93247554D01*
X192026095Y-93058217D01*
X192091757Y-92856130D01*
X192091757Y-92856127D01*
X192098029Y-92816530D01*
X203629500Y-92816530D01*
X203629500Y-93023469D01*
X203669868Y-93226412D01*
X203669870Y-93226420D01*
X203749058Y-93417596D01*
X203864024Y-93589657D01*
X204010342Y-93735975D01*
X204010345Y-93735977D01*
X204182402Y-93850941D01*
X204373580Y-93930130D01*
X204576530Y-93970499D01*
X204576534Y-93970500D01*
X204576535Y-93970500D01*
X205383466Y-93970500D01*
X205383467Y-93970499D01*
X205586420Y-93930130D01*
X205777598Y-93850941D01*
X205949655Y-93735977D01*
X206095977Y-93589655D01*
X206210941Y-93417598D01*
X206290130Y-93226420D01*
X206330500Y-93023465D01*
X206330500Y-92816535D01*
X206330499Y-92816530D01*
X207429500Y-92816530D01*
X207429500Y-93023469D01*
X207469868Y-93226412D01*
X207469870Y-93226420D01*
X207549058Y-93417596D01*
X207664024Y-93589657D01*
X207810342Y-93735975D01*
X207810345Y-93735977D01*
X207982402Y-93850941D01*
X208173580Y-93930130D01*
X208376530Y-93970499D01*
X208376534Y-93970500D01*
X208376535Y-93970500D01*
X209183466Y-93970500D01*
X209183467Y-93970499D01*
X209386420Y-93930130D01*
X209577598Y-93850941D01*
X209749655Y-93735977D01*
X209895977Y-93589655D01*
X210010941Y-93417598D01*
X210090130Y-93226420D01*
X210130500Y-93023465D01*
X210130500Y-92816535D01*
X210090130Y-92613580D01*
X210010941Y-92422402D01*
X209895977Y-92250345D01*
X209895975Y-92250342D01*
X209749657Y-92104024D01*
X209626572Y-92021782D01*
X209577598Y-91989059D01*
X209386420Y-91909870D01*
X209386412Y-91909868D01*
X209183469Y-91869500D01*
X209183465Y-91869500D01*
X208376535Y-91869500D01*
X208376530Y-91869500D01*
X208173587Y-91909868D01*
X208173579Y-91909870D01*
X207982403Y-91989058D01*
X207810342Y-92104024D01*
X207664024Y-92250342D01*
X207549058Y-92422403D01*
X207469870Y-92613579D01*
X207469868Y-92613587D01*
X207429500Y-92816530D01*
X206330499Y-92816530D01*
X206290130Y-92613580D01*
X206210941Y-92422402D01*
X206095977Y-92250345D01*
X206095975Y-92250342D01*
X205949657Y-92104024D01*
X205826572Y-92021782D01*
X205777598Y-91989059D01*
X205586420Y-91909870D01*
X205586412Y-91909868D01*
X205383469Y-91869500D01*
X205383465Y-91869500D01*
X204576535Y-91869500D01*
X204576530Y-91869500D01*
X204373587Y-91909868D01*
X204373579Y-91909870D01*
X204182403Y-91989058D01*
X204010342Y-92104024D01*
X203864024Y-92250342D01*
X203749058Y-92422403D01*
X203669870Y-92613579D01*
X203669868Y-92613587D01*
X203629500Y-92816530D01*
X192098029Y-92816530D01*
X192102066Y-92791045D01*
X192125000Y-92646246D01*
X192125000Y-92433753D01*
X192091757Y-92223872D01*
X192091757Y-92223869D01*
X192026095Y-92021782D01*
X191929624Y-91832449D01*
X191890270Y-91778282D01*
X191890269Y-91778282D01*
X191257962Y-92410590D01*
X191240925Y-92347007D01*
X191175099Y-92232993D01*
X191082007Y-92139901D01*
X190967993Y-92074075D01*
X190904409Y-92057037D01*
X191574627Y-91386818D01*
X191635950Y-91353333D01*
X191662307Y-91350499D01*
X191672872Y-91350499D01*
X191732483Y-91344091D01*
X191867331Y-91293796D01*
X191982546Y-91207546D01*
X192068796Y-91092331D01*
X192119091Y-90957483D01*
X192125500Y-90897873D01*
X192125499Y-89102128D01*
X192119091Y-89042517D01*
X192111122Y-89021153D01*
X202594500Y-89021153D01*
X202594500Y-89178846D01*
X202625261Y-89333489D01*
X202625264Y-89333501D01*
X202685602Y-89479172D01*
X202685609Y-89479185D01*
X202773210Y-89610288D01*
X202773213Y-89610292D01*
X202884707Y-89721786D01*
X202884711Y-89721789D01*
X203015814Y-89809390D01*
X203015827Y-89809397D01*
X203161498Y-89869735D01*
X203161503Y-89869737D01*
X203316153Y-89900499D01*
X203316156Y-89900500D01*
X203316158Y-89900500D01*
X203473844Y-89900500D01*
X203473845Y-89900499D01*
X203628497Y-89869737D01*
X203774179Y-89809394D01*
X203905289Y-89721789D01*
X204016789Y-89610289D01*
X204104394Y-89479179D01*
X204164737Y-89333497D01*
X204195500Y-89178842D01*
X204195500Y-89021158D01*
X204185982Y-88973308D01*
X204192209Y-88903718D01*
X204235071Y-88848540D01*
X204260147Y-88834556D01*
X204369173Y-88789397D01*
X204369176Y-88789395D01*
X204369179Y-88789394D01*
X204500289Y-88701789D01*
X204611789Y-88590289D01*
X204699394Y-88459179D01*
X204759737Y-88313497D01*
X204785672Y-88183116D01*
X204818057Y-88121205D01*
X204819551Y-88119683D01*
X206610520Y-86328716D01*
X206689577Y-86191784D01*
X206730501Y-86039057D01*
X206730501Y-85880942D01*
X206730501Y-85873347D01*
X206730500Y-85873329D01*
X206730500Y-84176530D01*
X207429500Y-84176530D01*
X207429500Y-84383469D01*
X207469868Y-84586412D01*
X207469870Y-84586420D01*
X207489949Y-84634896D01*
X207549059Y-84777598D01*
X207606541Y-84863626D01*
X207664024Y-84949657D01*
X207810342Y-85095975D01*
X207810345Y-85095977D01*
X207982402Y-85210941D01*
X208173580Y-85290130D01*
X208297118Y-85314703D01*
X208376530Y-85330499D01*
X208376534Y-85330500D01*
X208376535Y-85330500D01*
X209183466Y-85330500D01*
X209183467Y-85330499D01*
X209386420Y-85290130D01*
X209577598Y-85210941D01*
X209749655Y-85095977D01*
X209895977Y-84949655D01*
X210010941Y-84777598D01*
X210090130Y-84586420D01*
X210130500Y-84383465D01*
X210130500Y-84176535D01*
X210090130Y-83973580D01*
X210010941Y-83782402D01*
X209895977Y-83610345D01*
X209895975Y-83610342D01*
X209749657Y-83464024D01*
X209581893Y-83351929D01*
X209577598Y-83349059D01*
X209386420Y-83269870D01*
X209386412Y-83269868D01*
X209183469Y-83229500D01*
X209183465Y-83229500D01*
X208376535Y-83229500D01*
X208376530Y-83229500D01*
X208173587Y-83269868D01*
X208173579Y-83269870D01*
X207982403Y-83349058D01*
X207810342Y-83464024D01*
X207664024Y-83610342D01*
X207549058Y-83782403D01*
X207469870Y-83973579D01*
X207469868Y-83973587D01*
X207429500Y-84176530D01*
X206730500Y-84176530D01*
X206730500Y-81769060D01*
X206730501Y-81769047D01*
X206730501Y-81600945D01*
X206730501Y-81600943D01*
X206689577Y-81448215D01*
X206667112Y-81409304D01*
X206650500Y-81347305D01*
X206650500Y-81321155D01*
X206650499Y-81321153D01*
X206619738Y-81166510D01*
X206619737Y-81166503D01*
X206561013Y-81024729D01*
X206559397Y-81020827D01*
X206559390Y-81020814D01*
X206471789Y-80889711D01*
X206471786Y-80889707D01*
X206360292Y-80778213D01*
X206360288Y-80778210D01*
X206229185Y-80690609D01*
X206229172Y-80690602D01*
X206083501Y-80630264D01*
X206083489Y-80630261D01*
X205928845Y-80599500D01*
X205928842Y-80599500D01*
X205771158Y-80599500D01*
X205771155Y-80599500D01*
X205616510Y-80630261D01*
X205616499Y-80630264D01*
X205599162Y-80637445D01*
X205529693Y-80644911D01*
X205467215Y-80613634D01*
X205431565Y-80553544D01*
X205434061Y-80483718D01*
X205464031Y-80435203D01*
X205854662Y-80044572D01*
X205915983Y-80011089D01*
X205918150Y-80010638D01*
X205976085Y-79999113D01*
X206073497Y-79979737D01*
X206219179Y-79919394D01*
X206350289Y-79831789D01*
X206461789Y-79720289D01*
X206549394Y-79589179D01*
X206609737Y-79443497D01*
X206640500Y-79288842D01*
X206640500Y-79131158D01*
X206640500Y-79131155D01*
X206640499Y-79131153D01*
X206609738Y-78976510D01*
X206609738Y-78976508D01*
X206609737Y-78976503D01*
X206609735Y-78976498D01*
X206549397Y-78830827D01*
X206549390Y-78830814D01*
X206461789Y-78699711D01*
X206461786Y-78699707D01*
X206350292Y-78588213D01*
X206350288Y-78588210D01*
X206219185Y-78500609D01*
X206219172Y-78500602D01*
X206073501Y-78440264D01*
X206073489Y-78440261D01*
X205918845Y-78409500D01*
X205918842Y-78409500D01*
X205761158Y-78409500D01*
X205761155Y-78409500D01*
X205606510Y-78440261D01*
X205606498Y-78440264D01*
X205460827Y-78500602D01*
X205460814Y-78500609D01*
X205329711Y-78588210D01*
X205329707Y-78588213D01*
X205218213Y-78699707D01*
X205218210Y-78699711D01*
X205130609Y-78830814D01*
X205130602Y-78830827D01*
X205070264Y-78976498D01*
X205070261Y-78976508D01*
X205039361Y-79131850D01*
X205006976Y-79193761D01*
X205005425Y-79195339D01*
X202909481Y-81291282D01*
X202909480Y-81291284D01*
X202877137Y-81347305D01*
X202859361Y-81378094D01*
X202859359Y-81378096D01*
X202830425Y-81428209D01*
X202830424Y-81428210D01*
X202830423Y-81428215D01*
X202789499Y-81580943D01*
X202789499Y-81580945D01*
X202789499Y-81749046D01*
X202789500Y-81749059D01*
X202789500Y-88527717D01*
X202769815Y-88594756D01*
X202768602Y-88596608D01*
X202685609Y-88720814D01*
X202685602Y-88720827D01*
X202625264Y-88866498D01*
X202625261Y-88866510D01*
X202594500Y-89021153D01*
X192111122Y-89021153D01*
X192106545Y-89008881D01*
X192106105Y-89007617D01*
X192104428Y-88974005D01*
X192102028Y-88940441D01*
X192102693Y-88939222D01*
X192102624Y-88937834D01*
X192119386Y-88908649D01*
X192135512Y-88879118D01*
X192136870Y-88878210D01*
X192137424Y-88877247D01*
X192141385Y-88875193D01*
X192175738Y-88852240D01*
X192279179Y-88809394D01*
X192410289Y-88721789D01*
X192521789Y-88610289D01*
X192609394Y-88479179D01*
X192609863Y-88478048D01*
X192669735Y-88333501D01*
X192669737Y-88333497D01*
X192699650Y-88183116D01*
X192700638Y-88178150D01*
X192733023Y-88116239D01*
X192734518Y-88114716D01*
X194012416Y-86836819D01*
X194073739Y-86803334D01*
X194100097Y-86800500D01*
X194203844Y-86800500D01*
X194203845Y-86800499D01*
X194358497Y-86769737D01*
X194504179Y-86709394D01*
X194635289Y-86621789D01*
X194746789Y-86510289D01*
X194834394Y-86379179D01*
X194894737Y-86233497D01*
X194925500Y-86078842D01*
X194925500Y-85921158D01*
X194925500Y-85921155D01*
X194925499Y-85921153D01*
X194895819Y-85771942D01*
X194894737Y-85766503D01*
X194878350Y-85726941D01*
X194834397Y-85620827D01*
X194834390Y-85620814D01*
X194746789Y-85489711D01*
X194746786Y-85489707D01*
X194635292Y-85378213D01*
X194635288Y-85378210D01*
X194504185Y-85290609D01*
X194504172Y-85290602D01*
X194358501Y-85230264D01*
X194358489Y-85230261D01*
X194203845Y-85199500D01*
X194203842Y-85199500D01*
X194046158Y-85199500D01*
X194046155Y-85199500D01*
X193891510Y-85230261D01*
X193891498Y-85230264D01*
X193745827Y-85290602D01*
X193745814Y-85290609D01*
X193614711Y-85378210D01*
X193614707Y-85378213D01*
X193503213Y-85489707D01*
X193503210Y-85489711D01*
X193415609Y-85620814D01*
X193415602Y-85620827D01*
X193355263Y-85766500D01*
X193353493Y-85772337D01*
X193352194Y-85771942D01*
X193323010Y-85827726D01*
X193321464Y-85829299D01*
X191885339Y-87265425D01*
X191824016Y-87298910D01*
X191821850Y-87299361D01*
X191666508Y-87330261D01*
X191666498Y-87330264D01*
X191520827Y-87390602D01*
X191520814Y-87390609D01*
X191389711Y-87478210D01*
X191389707Y-87478213D01*
X191278213Y-87589707D01*
X191278210Y-87589711D01*
X191190609Y-87720814D01*
X191190602Y-87720827D01*
X191130264Y-87866498D01*
X191130261Y-87866510D01*
X191099500Y-88021153D01*
X191099500Y-88178846D01*
X191130261Y-88333489D01*
X191130264Y-88333501D01*
X191190137Y-88478048D01*
X191197606Y-88547517D01*
X191166331Y-88609996D01*
X191106241Y-88645648D01*
X191075576Y-88649500D01*
X189877129Y-88649500D01*
X189877123Y-88649501D01*
X189817516Y-88655908D01*
X189682671Y-88706202D01*
X189682664Y-88706206D01*
X189567455Y-88792452D01*
X189567452Y-88792455D01*
X189481206Y-88907664D01*
X189481202Y-88907671D01*
X189430908Y-89042517D01*
X189424501Y-89102116D01*
X189424501Y-89102123D01*
X189424500Y-89102135D01*
X180520725Y-89102135D01*
X180520560Y-88866498D01*
X180512765Y-77766228D01*
X188049500Y-77766228D01*
X188049500Y-79383771D01*
X188082181Y-79548073D01*
X188082184Y-79548082D01*
X188146296Y-79702863D01*
X188146297Y-79702866D01*
X188239372Y-79842161D01*
X188239375Y-79842165D01*
X189207834Y-80810624D01*
X189207842Y-80810630D01*
X189347127Y-80903697D01*
X189347130Y-80903698D01*
X189347138Y-80903704D01*
X189437806Y-80941259D01*
X189501918Y-80967816D01*
X189666228Y-81000499D01*
X189666232Y-81000500D01*
X189666233Y-81000500D01*
X191433768Y-81000500D01*
X191433769Y-81000499D01*
X191509017Y-80985532D01*
X191598074Y-80967818D01*
X191598078Y-80967816D01*
X191598082Y-80967816D01*
X191643415Y-80949037D01*
X191752863Y-80903704D01*
X191892162Y-80810627D01*
X193215970Y-79486819D01*
X193277293Y-79453334D01*
X193303651Y-79450500D01*
X193498102Y-79450500D01*
X193565141Y-79470185D01*
X193610896Y-79522989D01*
X193620840Y-79592147D01*
X193591815Y-79655703D01*
X193579382Y-79668145D01*
X193519305Y-79720288D01*
X192107121Y-80945956D01*
X192016361Y-81024729D01*
X191187466Y-81744147D01*
X191123933Y-81773224D01*
X191106187Y-81774500D01*
X189877129Y-81774500D01*
X189877123Y-81774501D01*
X189817516Y-81780908D01*
X189682671Y-81831202D01*
X189682664Y-81831206D01*
X189567455Y-81917452D01*
X189567452Y-81917455D01*
X189481206Y-82032664D01*
X189481202Y-82032671D01*
X189430908Y-82167517D01*
X189424501Y-82227116D01*
X189424500Y-82227135D01*
X189424500Y-84022870D01*
X189424501Y-84022876D01*
X189430908Y-84082483D01*
X189481202Y-84217328D01*
X189481206Y-84217335D01*
X189567452Y-84332544D01*
X189567455Y-84332547D01*
X189682664Y-84418793D01*
X189682671Y-84418797D01*
X189814082Y-84467810D01*
X189870016Y-84509681D01*
X189894433Y-84575145D01*
X189879582Y-84643418D01*
X189858431Y-84671673D01*
X189744889Y-84785215D01*
X189619951Y-84957179D01*
X189523444Y-85146585D01*
X189457753Y-85348760D01*
X189435429Y-85489711D01*
X189424500Y-85558713D01*
X189424500Y-85771287D01*
X189433688Y-85829299D01*
X189448236Y-85921153D01*
X189457754Y-85981243D01*
X189489467Y-86078846D01*
X189523444Y-86183414D01*
X189619951Y-86372820D01*
X189744890Y-86544786D01*
X189895213Y-86695109D01*
X190067179Y-86820048D01*
X190067181Y-86820049D01*
X190067184Y-86820051D01*
X190256588Y-86916557D01*
X190458757Y-86982246D01*
X190668713Y-87015500D01*
X190668714Y-87015500D01*
X190881286Y-87015500D01*
X190881287Y-87015500D01*
X191091243Y-86982246D01*
X191293412Y-86916557D01*
X191482816Y-86820051D01*
X191509727Y-86800499D01*
X191654786Y-86695109D01*
X191654788Y-86695106D01*
X191654792Y-86695104D01*
X191805104Y-86544792D01*
X191805106Y-86544788D01*
X191805109Y-86544786D01*
X191930048Y-86372820D01*
X191930047Y-86372820D01*
X191930051Y-86372816D01*
X192026557Y-86183412D01*
X192092246Y-85981243D01*
X192116357Y-85829004D01*
X192146284Y-85765875D01*
X192164204Y-85749376D01*
X208190835Y-73674519D01*
X208256222Y-73649901D01*
X208321745Y-73663072D01*
X208499970Y-73753882D01*
X208499972Y-73753882D01*
X208499975Y-73753884D01*
X208600317Y-73786487D01*
X208687173Y-73814709D01*
X208881578Y-73845500D01*
X208881583Y-73845500D01*
X209078422Y-73845500D01*
X209272826Y-73814709D01*
X209460025Y-73753884D01*
X209635405Y-73664524D01*
X209794646Y-73548828D01*
X209933828Y-73409646D01*
X210049524Y-73250405D01*
X210138884Y-73075025D01*
X210199709Y-72887826D01*
X210206100Y-72847474D01*
X210230500Y-72693422D01*
X210230500Y-70996577D01*
X210199709Y-70802173D01*
X210138882Y-70614970D01*
X210055001Y-70450345D01*
X210049524Y-70439595D01*
X209933828Y-70280354D01*
X209794646Y-70141172D01*
X209635405Y-70025476D01*
X209635401Y-70025474D01*
X209460029Y-69936117D01*
X209272826Y-69875290D01*
X209078422Y-69844500D01*
X209078417Y-69844500D01*
X208881583Y-69844500D01*
X208881578Y-69844500D01*
X208687173Y-69875290D01*
X208499970Y-69936117D01*
X208324594Y-70025476D01*
X208251138Y-70078846D01*
X208165354Y-70141172D01*
X208165352Y-70141174D01*
X208165351Y-70141174D01*
X208026174Y-70280351D01*
X208026174Y-70280352D01*
X208026172Y-70280354D01*
X208013953Y-70297172D01*
X207910476Y-70439594D01*
X207821117Y-70614970D01*
X207760290Y-70802173D01*
X207729500Y-70996577D01*
X207729500Y-71830519D01*
X207709815Y-71897558D01*
X207680117Y-71929556D01*
X192324116Y-83499146D01*
X192311331Y-83503959D01*
X192301010Y-83512903D01*
X192279276Y-83516027D01*
X192258727Y-83523765D01*
X192245372Y-83520902D01*
X192231852Y-83522847D01*
X192211876Y-83513724D01*
X192190409Y-83509124D01*
X192180721Y-83499496D01*
X192168296Y-83493822D01*
X192156424Y-83475349D01*
X192140851Y-83459872D01*
X192137104Y-83445286D01*
X192130522Y-83435044D01*
X192125499Y-83400109D01*
X192125499Y-83238902D01*
X192145184Y-83171863D01*
X192168220Y-83145255D01*
X203086925Y-73668643D01*
X203150455Y-73639568D01*
X203219621Y-73649456D01*
X203241084Y-73661973D01*
X203244595Y-73664524D01*
X203310651Y-73698181D01*
X203419970Y-73753882D01*
X203419972Y-73753882D01*
X203419975Y-73753884D01*
X203520317Y-73786487D01*
X203607173Y-73814709D01*
X203801578Y-73845500D01*
X203801583Y-73845500D01*
X203998422Y-73845500D01*
X204192826Y-73814709D01*
X204380025Y-73753884D01*
X204555405Y-73664524D01*
X204714646Y-73548828D01*
X204853828Y-73409646D01*
X204969524Y-73250405D01*
X205058884Y-73075025D01*
X205119709Y-72887826D01*
X205126100Y-72847474D01*
X205150500Y-72693422D01*
X205150500Y-70996577D01*
X205119709Y-70802173D01*
X205058882Y-70614970D01*
X204975001Y-70450345D01*
X204969524Y-70439595D01*
X204853828Y-70280354D01*
X204714646Y-70141172D01*
X204555405Y-70025476D01*
X204555401Y-70025474D01*
X204380029Y-69936117D01*
X204192826Y-69875290D01*
X203998422Y-69844500D01*
X203998417Y-69844500D01*
X203801583Y-69844500D01*
X203801578Y-69844500D01*
X203607173Y-69875290D01*
X203419970Y-69936117D01*
X203244594Y-70025476D01*
X203171138Y-70078846D01*
X203085354Y-70141172D01*
X203085352Y-70141174D01*
X203085351Y-70141174D01*
X202946173Y-70280352D01*
X202874818Y-70378564D01*
X202819487Y-70421229D01*
X202749874Y-70427208D01*
X202688079Y-70394602D01*
X202653722Y-70333763D01*
X202650500Y-70305678D01*
X202650500Y-69803650D01*
X202670185Y-69736611D01*
X202686819Y-69715969D01*
X204560626Y-67842162D01*
X204653703Y-67702863D01*
X204717816Y-67548082D01*
X204750500Y-67383767D01*
X204750500Y-64394336D01*
X204770185Y-64327297D01*
X204786819Y-64306655D01*
X204812648Y-64280826D01*
X204853828Y-64239646D01*
X204969524Y-64080405D01*
X205058884Y-63905025D01*
X205119709Y-63717826D01*
X205123042Y-63696782D01*
X205150500Y-63523422D01*
X205150500Y-61826577D01*
X207729500Y-61826577D01*
X207729500Y-63523422D01*
X207760290Y-63717826D01*
X207821117Y-63905029D01*
X207880721Y-64022007D01*
X207910476Y-64080405D01*
X208026172Y-64239646D01*
X208165354Y-64378828D01*
X208324595Y-64494524D01*
X208395314Y-64530557D01*
X208499970Y-64583882D01*
X208499972Y-64583882D01*
X208499975Y-64583884D01*
X208596044Y-64615099D01*
X208687173Y-64644709D01*
X208881578Y-64675500D01*
X208881583Y-64675500D01*
X209078422Y-64675500D01*
X209272826Y-64644709D01*
X209460025Y-64583884D01*
X209635405Y-64494524D01*
X209794646Y-64378828D01*
X209933828Y-64239646D01*
X210049524Y-64080405D01*
X210138884Y-63905025D01*
X210199709Y-63717826D01*
X210203042Y-63696782D01*
X210230500Y-63523422D01*
X210230500Y-61826577D01*
X210199709Y-61632173D01*
X210138882Y-61444970D01*
X210049523Y-61269594D01*
X210045682Y-61264307D01*
X209933828Y-61110354D01*
X209794646Y-60971172D01*
X209635405Y-60855476D01*
X209460029Y-60766117D01*
X209272826Y-60705290D01*
X209078422Y-60674500D01*
X209078417Y-60674500D01*
X208881583Y-60674500D01*
X208881578Y-60674500D01*
X208687173Y-60705290D01*
X208499970Y-60766117D01*
X208324594Y-60855476D01*
X208233741Y-60921485D01*
X208165354Y-60971172D01*
X208165352Y-60971174D01*
X208165351Y-60971174D01*
X208026174Y-61110351D01*
X208026174Y-61110352D01*
X208026172Y-61110354D01*
X208013953Y-61127172D01*
X207910476Y-61269594D01*
X207821117Y-61444970D01*
X207760290Y-61632173D01*
X207729500Y-61826577D01*
X205150500Y-61826577D01*
X205119709Y-61632173D01*
X205058882Y-61444970D01*
X204969523Y-61269594D01*
X204965682Y-61264307D01*
X204853828Y-61110354D01*
X204714646Y-60971172D01*
X204555405Y-60855476D01*
X204380029Y-60766117D01*
X204192826Y-60705290D01*
X203998422Y-60674500D01*
X203998417Y-60674500D01*
X203801583Y-60674500D01*
X203801578Y-60674500D01*
X203607173Y-60705290D01*
X203419970Y-60766117D01*
X203244594Y-60855476D01*
X203153741Y-60921485D01*
X203085354Y-60971172D01*
X203085352Y-60971174D01*
X203085351Y-60971174D01*
X202946174Y-61110351D01*
X202946174Y-61110352D01*
X202946172Y-61110354D01*
X202933953Y-61127172D01*
X202830476Y-61269594D01*
X202741117Y-61444970D01*
X202680290Y-61632173D01*
X202649500Y-61826577D01*
X202649500Y-63523422D01*
X202680290Y-63717826D01*
X202741117Y-63905029D01*
X202800721Y-64022007D01*
X202830476Y-64080405D01*
X202946172Y-64239646D01*
X202946174Y-64239648D01*
X203013181Y-64306655D01*
X203046666Y-64367978D01*
X203049500Y-64394336D01*
X203049500Y-66896348D01*
X203029815Y-66963387D01*
X203013181Y-66984029D01*
X201139375Y-68857834D01*
X201139372Y-68857838D01*
X201046299Y-68997130D01*
X201046292Y-68997143D01*
X201000962Y-69106583D01*
X200982185Y-69151913D01*
X200982182Y-69151925D01*
X200949500Y-69316228D01*
X200949500Y-71098431D01*
X200929815Y-71165470D01*
X200913181Y-71186112D01*
X200282181Y-71817112D01*
X200220858Y-71850597D01*
X200151166Y-71845613D01*
X200095233Y-71803741D01*
X200070816Y-71738277D01*
X200070500Y-71729431D01*
X200070500Y-70996577D01*
X200039709Y-70802173D01*
X199978882Y-70614970D01*
X199956914Y-70571856D01*
X199944018Y-70503186D01*
X199964297Y-70446670D01*
X200009394Y-70379179D01*
X200069737Y-70233497D01*
X200100500Y-70078842D01*
X200100500Y-69921158D01*
X200100500Y-69921155D01*
X200100499Y-69921153D01*
X200085351Y-69845000D01*
X200069737Y-69766503D01*
X200063641Y-69751785D01*
X200009397Y-69620827D01*
X200009390Y-69620814D01*
X199921789Y-69489711D01*
X199921786Y-69489707D01*
X199810292Y-69378213D01*
X199810288Y-69378210D01*
X199679185Y-69290609D01*
X199679172Y-69290602D01*
X199533501Y-69230264D01*
X199533492Y-69230261D01*
X199520307Y-69227639D01*
X199458397Y-69195253D01*
X199423823Y-69134537D01*
X199420500Y-69106022D01*
X199420500Y-64597596D01*
X199440185Y-64530557D01*
X199471614Y-64497278D01*
X199475403Y-64494524D01*
X199475405Y-64494524D01*
X199634646Y-64378828D01*
X199773828Y-64239646D01*
X199889524Y-64080405D01*
X199978884Y-63905025D01*
X200039709Y-63717826D01*
X200043042Y-63696782D01*
X200070500Y-63523422D01*
X200070500Y-61826577D01*
X200039709Y-61632173D01*
X199978882Y-61444970D01*
X199889523Y-61269594D01*
X199885682Y-61264307D01*
X199773828Y-61110354D01*
X199634646Y-60971172D01*
X199475405Y-60855476D01*
X199300029Y-60766117D01*
X199112826Y-60705290D01*
X198918422Y-60674500D01*
X198918417Y-60674500D01*
X198721583Y-60674500D01*
X198721578Y-60674500D01*
X198527173Y-60705290D01*
X198339970Y-60766117D01*
X198164594Y-60855476D01*
X198073741Y-60921485D01*
X198005354Y-60971172D01*
X198005352Y-60971174D01*
X198005351Y-60971174D01*
X197866174Y-61110351D01*
X197866174Y-61110352D01*
X197866172Y-61110354D01*
X197853953Y-61127172D01*
X197754318Y-61264307D01*
X197698988Y-61306972D01*
X197629374Y-61312951D01*
X197567579Y-61280345D01*
X197533222Y-61219506D01*
X197530000Y-61191421D01*
X197530000Y-61127172D01*
X197529999Y-61127155D01*
X197523598Y-61067627D01*
X197523596Y-61067620D01*
X197473354Y-60932913D01*
X197473350Y-60932906D01*
X197387190Y-60817812D01*
X197387187Y-60817809D01*
X197272093Y-60731649D01*
X197272086Y-60731645D01*
X197137379Y-60681403D01*
X197137372Y-60681401D01*
X197077844Y-60675000D01*
X196530000Y-60675000D01*
X196530000Y-62241988D01*
X196472993Y-62209075D01*
X196345826Y-62175000D01*
X196214174Y-62175000D01*
X196087007Y-62209075D01*
X196030000Y-62241988D01*
X196030000Y-60675000D01*
X195482155Y-60675000D01*
X195422627Y-60681401D01*
X195422620Y-60681403D01*
X195287913Y-60731645D01*
X195287906Y-60731649D01*
X195172812Y-60817809D01*
X195172809Y-60817812D01*
X195086649Y-60932906D01*
X195086645Y-60932913D01*
X195036403Y-61067620D01*
X195036401Y-61067627D01*
X195030000Y-61127155D01*
X195030000Y-62425000D01*
X195846988Y-62425000D01*
X195814075Y-62482007D01*
X195780000Y-62609174D01*
X195780000Y-62740826D01*
X195814075Y-62867993D01*
X195846988Y-62925000D01*
X195030000Y-62925000D01*
X195030000Y-64222844D01*
X195036401Y-64282372D01*
X195036403Y-64282379D01*
X195086645Y-64417086D01*
X195086649Y-64417093D01*
X195172809Y-64532187D01*
X195172812Y-64532190D01*
X195287906Y-64618350D01*
X195287913Y-64618354D01*
X195422620Y-64668596D01*
X195422627Y-64668598D01*
X195482155Y-64674999D01*
X195482172Y-64675000D01*
X196030000Y-64675000D01*
X196030000Y-63108012D01*
X196087007Y-63140925D01*
X196214174Y-63175000D01*
X196345826Y-63175000D01*
X196472993Y-63140925D01*
X196530000Y-63108012D01*
X196530000Y-64675000D01*
X197077828Y-64675000D01*
X197077844Y-64674999D01*
X197137372Y-64668598D01*
X197137379Y-64668596D01*
X197272086Y-64618354D01*
X197272093Y-64618350D01*
X197387187Y-64532190D01*
X197387190Y-64532187D01*
X197473350Y-64417093D01*
X197473354Y-64417086D01*
X197523596Y-64282379D01*
X197523598Y-64282372D01*
X197529999Y-64222844D01*
X197530000Y-64222827D01*
X197530000Y-64158578D01*
X197549685Y-64091539D01*
X197602489Y-64045784D01*
X197671647Y-64035840D01*
X197735203Y-64064865D01*
X197754314Y-64085688D01*
X197866172Y-64239646D01*
X198005354Y-64378828D01*
X198164594Y-64494523D01*
X198168386Y-64497278D01*
X198211051Y-64552608D01*
X198219500Y-64597596D01*
X198219500Y-69433330D01*
X198219499Y-69433348D01*
X198219499Y-69599054D01*
X198219498Y-69599054D01*
X198260423Y-69751786D01*
X198260713Y-69752288D01*
X198268921Y-69766503D01*
X198278147Y-69782483D01*
X198295405Y-69812376D01*
X198311875Y-69880276D01*
X198306318Y-69896331D01*
X198289022Y-69946302D01*
X198244312Y-69984857D01*
X198164597Y-70025474D01*
X198091143Y-70078842D01*
X198005354Y-70141172D01*
X198005352Y-70141174D01*
X198005351Y-70141174D01*
X197866174Y-70280351D01*
X197866174Y-70280352D01*
X197866172Y-70280354D01*
X197853953Y-70297172D01*
X197754318Y-70434307D01*
X197698988Y-70476972D01*
X197629374Y-70482951D01*
X197567579Y-70450345D01*
X197533222Y-70389506D01*
X197530000Y-70361421D01*
X197530000Y-70297172D01*
X197529999Y-70297155D01*
X197523598Y-70237627D01*
X197523596Y-70237620D01*
X197473354Y-70102913D01*
X197473350Y-70102906D01*
X197387190Y-69987812D01*
X197387187Y-69987809D01*
X197272093Y-69901649D01*
X197272086Y-69901645D01*
X197137379Y-69851403D01*
X197137372Y-69851401D01*
X197077844Y-69845000D01*
X196530000Y-69845000D01*
X196530000Y-71411988D01*
X196472993Y-71379075D01*
X196345826Y-71345000D01*
X196214174Y-71345000D01*
X196087007Y-71379075D01*
X196030000Y-71411988D01*
X196030000Y-69845000D01*
X195482155Y-69845000D01*
X195422627Y-69851401D01*
X195422620Y-69851403D01*
X195287913Y-69901645D01*
X195287906Y-69901649D01*
X195172812Y-69987809D01*
X195172809Y-69987812D01*
X195086649Y-70102906D01*
X195086645Y-70102913D01*
X195036403Y-70237620D01*
X195036401Y-70237627D01*
X195030000Y-70297155D01*
X195030000Y-71595000D01*
X195846988Y-71595000D01*
X195814075Y-71652007D01*
X195780000Y-71779174D01*
X195780000Y-71910826D01*
X195814075Y-72037993D01*
X195846988Y-72095000D01*
X195014405Y-72095000D01*
X195011669Y-72096020D01*
X194988472Y-72108686D01*
X194979444Y-72108040D01*
X194970965Y-72111203D01*
X194945138Y-72105585D01*
X194918781Y-72103699D01*
X194909731Y-72097883D01*
X194902692Y-72096352D01*
X194874437Y-72075200D01*
X194857918Y-72058681D01*
X194811146Y-72011910D01*
X194768716Y-71969480D01*
X194768713Y-71969478D01*
X192161818Y-69362583D01*
X192128333Y-69301260D01*
X192125499Y-69274902D01*
X192125499Y-67927129D01*
X192125498Y-67927123D01*
X192125497Y-67927116D01*
X192119091Y-67867517D01*
X192109634Y-67842162D01*
X192068797Y-67732671D01*
X192068793Y-67732664D01*
X191982547Y-67617455D01*
X191982544Y-67617452D01*
X191867335Y-67531206D01*
X191867328Y-67531202D01*
X191732482Y-67480908D01*
X191732483Y-67480908D01*
X191672883Y-67474501D01*
X191672881Y-67474500D01*
X191672873Y-67474500D01*
X191672864Y-67474500D01*
X189877129Y-67474500D01*
X189877123Y-67474501D01*
X189817516Y-67480908D01*
X189682671Y-67531202D01*
X189682664Y-67531206D01*
X189567455Y-67617452D01*
X189567452Y-67617455D01*
X189481206Y-67732664D01*
X189481202Y-67732671D01*
X189430908Y-67867517D01*
X189424501Y-67927116D01*
X189424501Y-67927123D01*
X189424500Y-67927135D01*
X189424500Y-69722870D01*
X189424501Y-69722876D01*
X189430908Y-69782483D01*
X189481202Y-69917328D01*
X189481206Y-69917335D01*
X189567452Y-70032544D01*
X189567455Y-70032547D01*
X189682664Y-70118793D01*
X189682671Y-70118797D01*
X189727618Y-70135561D01*
X189817517Y-70169091D01*
X189877127Y-70175500D01*
X189887685Y-70175499D01*
X189954723Y-70195179D01*
X189975372Y-70211818D01*
X190645591Y-70882037D01*
X190582007Y-70899075D01*
X190467993Y-70964901D01*
X190374901Y-71057993D01*
X190309075Y-71172007D01*
X190292037Y-71235591D01*
X189659728Y-70603282D01*
X189659727Y-70603282D01*
X189620380Y-70657439D01*
X189523904Y-70846782D01*
X189458242Y-71048869D01*
X189458242Y-71048872D01*
X189425000Y-71258753D01*
X189425000Y-71471246D01*
X189458242Y-71681127D01*
X189458242Y-71681130D01*
X189523904Y-71883217D01*
X189620375Y-72072550D01*
X189659728Y-72126716D01*
X190292037Y-71494408D01*
X190309075Y-71557993D01*
X190374901Y-71672007D01*
X190467993Y-71765099D01*
X190582007Y-71830925D01*
X190645590Y-71847962D01*
X190013282Y-72480269D01*
X190013282Y-72480270D01*
X190067449Y-72519624D01*
X190256782Y-72616095D01*
X190458870Y-72681757D01*
X190668754Y-72715000D01*
X190881246Y-72715000D01*
X191091127Y-72681757D01*
X191091130Y-72681757D01*
X191293217Y-72616095D01*
X191482554Y-72519622D01*
X191536716Y-72480270D01*
X191536717Y-72480270D01*
X190904408Y-71847962D01*
X190967993Y-71830925D01*
X191082007Y-71765099D01*
X191175099Y-71672007D01*
X191240925Y-71557993D01*
X191257962Y-71494408D01*
X191890270Y-72126717D01*
X191890270Y-72126716D01*
X191929622Y-72072554D01*
X192026095Y-71883217D01*
X192091757Y-71681130D01*
X192091757Y-71681127D01*
X192125000Y-71471246D01*
X192125000Y-71323597D01*
X192144685Y-71256558D01*
X192197489Y-71210803D01*
X192266647Y-71200859D01*
X192330203Y-71229884D01*
X192336681Y-71235916D01*
X193751200Y-72650435D01*
X193784685Y-72711758D01*
X193779701Y-72781450D01*
X193737829Y-72837383D01*
X193672365Y-72861800D01*
X193608652Y-72848237D01*
X193608491Y-72848628D01*
X193606381Y-72847754D01*
X193605065Y-72847474D01*
X193602861Y-72846296D01*
X193448082Y-72782184D01*
X193448074Y-72782182D01*
X193283771Y-72749500D01*
X193283767Y-72749500D01*
X193116233Y-72749500D01*
X193116228Y-72749500D01*
X192951925Y-72782182D01*
X192951917Y-72782184D01*
X192797139Y-72846295D01*
X192657837Y-72939373D01*
X192539373Y-73057837D01*
X192446295Y-73197139D01*
X192382184Y-73351917D01*
X192382182Y-73351925D01*
X192349500Y-73516228D01*
X192349500Y-74947980D01*
X192329815Y-75015019D01*
X192277011Y-75060774D01*
X192207853Y-75070718D01*
X192144297Y-75041693D01*
X192109318Y-74991313D01*
X192068797Y-74882671D01*
X192068793Y-74882664D01*
X191982547Y-74767455D01*
X191982544Y-74767452D01*
X191867335Y-74681206D01*
X191867328Y-74681202D01*
X191732482Y-74630908D01*
X191732483Y-74630908D01*
X191672883Y-74624501D01*
X191672881Y-74624500D01*
X191672873Y-74624500D01*
X191672864Y-74624500D01*
X189877129Y-74624500D01*
X189877123Y-74624501D01*
X189817516Y-74630908D01*
X189682671Y-74681202D01*
X189682664Y-74681206D01*
X189567455Y-74767452D01*
X189567452Y-74767455D01*
X189481206Y-74882664D01*
X189481202Y-74882671D01*
X189430908Y-75017517D01*
X189424501Y-75077116D01*
X189424500Y-75077135D01*
X189424500Y-76071348D01*
X189404815Y-76138387D01*
X189388181Y-76159029D01*
X188239375Y-77307834D01*
X188239372Y-77307838D01*
X188146297Y-77447133D01*
X188146296Y-77447136D01*
X188118394Y-77514499D01*
X188118394Y-77514500D01*
X188082184Y-77601917D01*
X188082182Y-77601925D01*
X188049500Y-77766228D01*
X180512765Y-77766228D01*
X180512761Y-77760228D01*
X180509020Y-72433098D01*
X180508192Y-71253968D01*
X180506919Y-69440939D01*
X180500517Y-60324586D01*
X180520155Y-60257534D01*
X180572926Y-60211742D01*
X180624517Y-60200500D01*
X180665892Y-60200500D01*
X189551502Y-60200500D01*
X189618541Y-60220185D01*
G37*
%TD.AperFunction*%
%TD*%
M02*
