%TF.GenerationSoftware,KiCad,Pcbnew,10.0.2*%
%TF.CreationDate,2026-06-25T19:46:37+02:00*%
%TF.ProjectId,Bahbahbahbahbah,42616862-6168-4626-9168-626168626168,rev?*%
%TF.SameCoordinates,Original*%
%TF.FileFunction,Copper,L1,Top*%
%TF.FilePolarity,Positive*%
%FSLAX46Y46*%
G04 Gerber Fmt 4.6, Leading zero omitted, Abs format (unit mm)*
G04 Created by KiCad (PCBNEW 10.0.2) date 2026-06-25 19:46:37*
%MOMM*%
%LPD*%
G01*
G04 APERTURE LIST*
G04 Aperture macros list*
%AMRoundRect*
0 Rectangle with rounded corners*
0 $1 Rounding radius*
0 $2 $3 $4 $5 $6 $7 $8 $9 X,Y pos of 4 corners*
0 Add a 4 corners polygon primitive as box body*
4,1,4,$2,$3,$4,$5,$6,$7,$8,$9,$2,$3,0*
0 Add four circle primitives for the rounded corners*
1,1,$1+$1,$2,$3*
1,1,$1+$1,$4,$5*
1,1,$1+$1,$6,$7*
1,1,$1+$1,$8,$9*
0 Add four rect primitives between the rounded corners*
20,1,$1+$1,$2,$3,$4,$5,0*
20,1,$1+$1,$4,$5,$6,$7,0*
20,1,$1+$1,$6,$7,$8,$9,0*
20,1,$1+$1,$8,$9,$2,$3,0*%
G04 Aperture macros list end*
%TA.AperFunction,SMDPad,CuDef*%
%ADD10RoundRect,0.100000X-0.130000X-0.100000X0.130000X-0.100000X0.130000X0.100000X-0.130000X0.100000X0*%
%TD*%
%TA.AperFunction,SMDPad,CuDef*%
%ADD11RoundRect,0.175000X0.425000X-0.175000X0.425000X0.175000X-0.425000X0.175000X-0.425000X-0.175000X0*%
%TD*%
%TA.AperFunction,SMDPad,CuDef*%
%ADD12RoundRect,0.190000X-0.410000X0.190000X-0.410000X-0.190000X0.410000X-0.190000X0.410000X0.190000X0*%
%TD*%
%TA.AperFunction,SMDPad,CuDef*%
%ADD13RoundRect,0.200000X-0.400000X0.200000X-0.400000X-0.200000X0.400000X-0.200000X0.400000X0.200000X0*%
%TD*%
%TA.AperFunction,SMDPad,CuDef*%
%ADD14RoundRect,0.175000X-0.425000X0.175000X-0.425000X-0.175000X0.425000X-0.175000X0.425000X0.175000X0*%
%TD*%
%TA.AperFunction,SMDPad,CuDef*%
%ADD15RoundRect,0.190000X0.410000X-0.190000X0.410000X0.190000X-0.410000X0.190000X-0.410000X-0.190000X0*%
%TD*%
%TA.AperFunction,SMDPad,CuDef*%
%ADD16RoundRect,0.200000X0.400000X-0.200000X0.400000X0.200000X-0.400000X0.200000X-0.400000X-0.200000X0*%
%TD*%
%TA.AperFunction,ComponentPad*%
%ADD17O,1.700000X1.100000*%
%TD*%
%TA.AperFunction,ComponentPad*%
%ADD18R,1.700000X1.700000*%
%TD*%
%TA.AperFunction,ComponentPad*%
%ADD19C,1.700000*%
%TD*%
%TA.AperFunction,ComponentPad*%
%ADD20R,1.500000X3.000000*%
%TD*%
%TA.AperFunction,ComponentPad*%
%ADD21O,1.500000X3.000000*%
%TD*%
%TA.AperFunction,SMDPad,CuDef*%
%ADD22RoundRect,0.375000X-0.625000X-0.375000X0.625000X-0.375000X0.625000X0.375000X-0.625000X0.375000X0*%
%TD*%
%TA.AperFunction,SMDPad,CuDef*%
%ADD23RoundRect,0.500000X-0.500000X-1.400000X0.500000X-1.400000X0.500000X1.400000X-0.500000X1.400000X0*%
%TD*%
%TA.AperFunction,ViaPad*%
%ADD24C,0.600000*%
%TD*%
%TA.AperFunction,Conductor*%
%ADD25C,0.200000*%
%TD*%
%TA.AperFunction,Conductor*%
%ADD26C,0.700000*%
%TD*%
G04 APERTURE END LIST*
D10*
%TO.P,C4,1*%
%TO.N,GND*%
X204335000Y-78405000D03*
%TO.P,C4,2*%
%TO.N,Net-(J7-Pin_1)*%
X204975000Y-78405000D03*
%TD*%
%TO.P,C5,1*%
%TO.N,GND*%
X204335000Y-80155000D03*
%TO.P,C5,2*%
%TO.N,Net-(J7-Pin_1)*%
X204975000Y-80155000D03*
%TD*%
D11*
%TO.P,J1,A5,CC1_A5*%
%TO.N,unconnected-(J1-CC1-PadA5)*%
X204900000Y-89100000D03*
D12*
%TO.P,J1,A9,VBUS_A9*%
%TO.N,Net-(J7-Pin_1)*%
X204900000Y-87080000D03*
D13*
%TO.P,J1,A12,GND_A12*%
%TO.N,GND*%
X204900000Y-85850000D03*
D14*
%TO.P,J1,B5,CC2_B5*%
%TO.N,unconnected-(J1-CC2-PadB5)*%
X204900000Y-88100000D03*
D15*
%TO.P,J1,B9,VBUS_B9*%
%TO.N,Net-(J7-Pin_1)*%
X204900000Y-90120000D03*
D16*
%TO.P,J1,B12,GND_B12*%
%TO.N,GND*%
X204900000Y-91350000D03*
D17*
%TO.P,J1,SH,SHIELD_SH*%
%TO.N,unconnected-(J1-SHIELD-PadSH)_3*%
X204980000Y-92920000D03*
%TO.N,unconnected-(J1-SHIELD-PadSH)*%
X208780000Y-92920000D03*
%TO.N,unconnected-(J1-SHIELD-PadSH)_1*%
X204980000Y-84280000D03*
%TO.N,unconnected-(J1-SHIELD-PadSH)_2*%
X208780000Y-84280000D03*
%TD*%
D18*
%TO.P,J7,1,Pin_1_1*%
%TO.N,Net-(J7-Pin_1)*%
X190775000Y-90000000D03*
D19*
%TO.P,J7,2,Pin_2_2*%
%TO.N,GND*%
X190775000Y-92540000D03*
%TD*%
D20*
%TO.P,U5,1,-VIN_1*%
%TO.N,GND*%
X196280000Y-71845000D03*
D21*
%TO.P,U5,2,+VIN_2*%
%TO.N,Net-(J7-Pin_1)*%
X198820000Y-71845000D03*
%TO.P,U5,4,+VOUT_4*%
%TO.N,Net-(J6-Pin_1)*%
X203900000Y-71845000D03*
%TO.P,U5,6,-VOUT_6*%
%TO.N,Net-(J6-Pin_2)*%
X208980000Y-71845000D03*
%TD*%
D22*
%TO.P,U1,1,GND_1*%
%TO.N,GND*%
X194825000Y-79640000D03*
%TO.P,U1,2,VO_2*%
%TO.N,Net-(J3-Pin_1)*%
X194825000Y-81940000D03*
D23*
X201125000Y-81940000D03*
D22*
%TO.P,U1,3,VI_3*%
%TO.N,Net-(J7-Pin_1)*%
X194825000Y-84240000D03*
%TD*%
D18*
%TO.P,J2,1,Pin_1_1*%
%TO.N,Net-(J2-Pin_1)*%
X190775000Y-61675000D03*
D19*
%TO.P,J2,2,Pin_2_2*%
%TO.N,GND*%
X190775000Y-64215000D03*
%TD*%
D18*
%TO.P,J3,1,Pin_1_1*%
%TO.N,Net-(J3-Pin_1)*%
X190775000Y-68825000D03*
D19*
%TO.P,J3,2,Pin_2_2*%
%TO.N,GND*%
X190775000Y-71365000D03*
%TD*%
D20*
%TO.P,U4,1,-VIN_1*%
%TO.N,GND*%
X196280000Y-62675000D03*
D21*
%TO.P,U4,2,+VIN_2*%
%TO.N,Net-(J7-Pin_1)*%
X198820000Y-62675000D03*
%TO.P,U4,4,+VOUT_4*%
%TO.N,Net-(J5-Pin_1)*%
X203900000Y-62675000D03*
%TO.P,U4,6,-VOUT_6*%
%TO.N,Net-(J5-Pin_2)*%
X208980000Y-62675000D03*
%TD*%
D18*
%TO.P,J5,1,Pin_1_1*%
%TO.N,Net-(J5-Pin_1)*%
X190775000Y-75975000D03*
D19*
%TO.P,J5,2,Pin_2_2*%
%TO.N,Net-(J5-Pin_2)*%
X190775000Y-78515000D03*
%TD*%
D18*
%TO.P,J6,1,Pin_1_1*%
%TO.N,Net-(J6-Pin_1)*%
X190775000Y-83125000D03*
D19*
%TO.P,J6,2,Pin_2_2*%
%TO.N,Net-(J6-Pin_2)*%
X190775000Y-85665000D03*
%TD*%
D22*
%TO.P,U6,1,VI_1*%
%TO.N,Net-(J7-Pin_1)*%
X194825000Y-87965000D03*
%TO.P,U6,2,GND_2*%
%TO.N,GND*%
X194825000Y-90265000D03*
D23*
X201125000Y-90265000D03*
D22*
%TO.P,U6,3,VO_3*%
%TO.N,Net-(J2-Pin_1)*%
X194825000Y-92565000D03*
%TD*%
D24*
%TO.N,Net-(J7-Pin_1)*%
X194125000Y-86000000D03*
X191900000Y-88100000D03*
X199300000Y-70000000D03*
%TO.N,GND*%
X196320000Y-74500000D03*
X190760000Y-73160000D03*
X192020000Y-93790000D03*
X189660000Y-65300000D03*
X194300000Y-62680000D03*
%TO.N,Net-(J3-Pin_1)*%
X194350000Y-77750000D03*
%TO.N,Net-(J5-Pin_2)*%
X193200000Y-73600000D03*
%TD*%
%TO.N,Net-(J7-Pin_1)*%
D25*
X204000000Y-87380000D02*
X203700000Y-87080000D01*
X204900000Y-87080000D02*
X204300000Y-87080000D01*
X195600000Y-86000000D02*
X195525000Y-86000000D01*
X202425000Y-83678642D02*
X200103642Y-86000000D01*
X194825000Y-84240000D02*
X194825000Y-85700000D01*
X204500000Y-90120000D02*
X204900000Y-90120000D01*
X204975000Y-80155000D02*
X204975000Y-78405000D01*
X199737500Y-70437500D02*
X199300000Y-70000000D01*
X194825000Y-86700000D02*
X194825000Y-87965000D01*
X195600000Y-86000000D02*
X195125000Y-86000000D01*
X194825000Y-85700000D02*
X195125000Y-86000000D01*
X191900000Y-88875000D02*
X190775000Y-90000000D01*
X204975000Y-78405000D02*
X204975000Y-78000000D01*
X191900000Y-88100000D02*
X191900000Y-88875000D01*
X194125000Y-86000000D02*
X194125000Y-85875000D01*
X198820000Y-71845000D02*
X199737500Y-72762500D01*
X204000000Y-87380000D02*
X204000000Y-89620000D01*
X204975000Y-78000000D02*
X202425000Y-75450000D01*
X195125000Y-86000000D02*
X194125000Y-86000000D01*
X204000000Y-89620000D02*
X204500000Y-90120000D01*
X202425000Y-75450000D02*
X202425000Y-83678642D01*
X203700000Y-87080000D02*
X204500000Y-87080000D01*
X195525000Y-86000000D02*
X194825000Y-86700000D01*
X203700000Y-87080000D02*
X202425000Y-85805000D01*
X202425000Y-85805000D02*
X202425000Y-83678642D01*
X200103642Y-86000000D02*
X195600000Y-86000000D01*
X199737500Y-72762500D02*
X199737500Y-70437500D01*
X199737500Y-72762500D02*
X202425000Y-75450000D01*
%TO.N,GND*%
X201125000Y-90265000D02*
X196500000Y-90265000D01*
X196280000Y-71845000D02*
X196280000Y-74460000D01*
X196280000Y-74460000D02*
X196320000Y-74500000D01*
X204250000Y-90800000D02*
X203715000Y-90265000D01*
X203830000Y-84780000D02*
X204900000Y-85850000D01*
X204250000Y-90800000D02*
X205518230Y-90800000D01*
X205800000Y-86620000D02*
X205800000Y-90518230D01*
X205518230Y-90800000D02*
X205549115Y-90769115D01*
X194825000Y-90265000D02*
X193525000Y-88965000D01*
X204335000Y-78405000D02*
X203830000Y-78910000D01*
X205549115Y-90769115D02*
X204968230Y-91350000D01*
X204335000Y-80595000D02*
X203830000Y-81100000D01*
X203715000Y-90265000D02*
X201125000Y-90265000D01*
X205030000Y-85850000D02*
X205800000Y-86620000D01*
X196500000Y-90265000D02*
X194825000Y-90265000D01*
X193525000Y-88965000D02*
X193525000Y-80940000D01*
X204968230Y-91350000D02*
X204900000Y-91350000D01*
X205800000Y-90518230D02*
X205549115Y-90769115D01*
X204900000Y-85850000D02*
X205030000Y-85850000D01*
X203830000Y-78910000D02*
X203830000Y-81100000D01*
X203830000Y-81100000D02*
X203830000Y-84780000D01*
X204335000Y-80155000D02*
X204335000Y-80595000D01*
X190775000Y-92540000D02*
X190775000Y-92545000D01*
D26*
X190775000Y-92545000D02*
X192020000Y-93790000D01*
D25*
X193525000Y-80940000D02*
X194825000Y-79640000D01*
%TO.N,Net-(J3-Pin_1)*%
X196125000Y-80640000D02*
X194825000Y-81940000D01*
X196125000Y-78725000D02*
X196125000Y-80640000D01*
X194825000Y-81940000D02*
X201125000Y-81940000D01*
X195150000Y-77750000D02*
X196125000Y-78725000D01*
X194350000Y-77750000D02*
X195150000Y-77750000D01*
%TO.N,Net-(J2-Pin_1)*%
X192500000Y-63400000D02*
X190775000Y-61675000D01*
X192500000Y-90240000D02*
X192500000Y-63400000D01*
X194825000Y-92565000D02*
X192500000Y-90240000D01*
%TO.N,Net-(J5-Pin_2)*%
D26*
X193200000Y-73600000D02*
X193200000Y-68600000D01*
X193200000Y-68600000D02*
X203055000Y-68600000D01*
X203055000Y-68600000D02*
X208980000Y-62675000D01*
%TD*%
%TA.AperFunction,Conductor*%
%TO.N,GND*%
G36*
X189618541Y-60220185D02*
G01*
X189664296Y-60272989D01*
X189674240Y-60342147D01*
X189645215Y-60405703D01*
X189625816Y-60423764D01*
X189567454Y-60467454D01*
X189567453Y-60467455D01*
X189567452Y-60467456D01*
X189481206Y-60582664D01*
X189481202Y-60582671D01*
X189430908Y-60717517D01*
X189424501Y-60777116D01*
X189424501Y-60777123D01*
X189424500Y-60777135D01*
X189424500Y-62572870D01*
X189424501Y-62572876D01*
X189430908Y-62632483D01*
X189481202Y-62767328D01*
X189481206Y-62767335D01*
X189567452Y-62882544D01*
X189567455Y-62882547D01*
X189682664Y-62968793D01*
X189682671Y-62968797D01*
X189727618Y-62985561D01*
X189817517Y-63019091D01*
X189877127Y-63025500D01*
X189887685Y-63025499D01*
X189954723Y-63045179D01*
X189975372Y-63061818D01*
X190645591Y-63732037D01*
X190582007Y-63749075D01*
X190467993Y-63814901D01*
X190374901Y-63907993D01*
X190309075Y-64022007D01*
X190292037Y-64085591D01*
X189659728Y-63453282D01*
X189659727Y-63453282D01*
X189620380Y-63507439D01*
X189523904Y-63696782D01*
X189458242Y-63898869D01*
X189458242Y-63898872D01*
X189425000Y-64108753D01*
X189425000Y-64321246D01*
X189458242Y-64531127D01*
X189458242Y-64531130D01*
X189523904Y-64733217D01*
X189620375Y-64922550D01*
X189659728Y-64976716D01*
X190292037Y-64344408D01*
X190309075Y-64407993D01*
X190374901Y-64522007D01*
X190467993Y-64615099D01*
X190582007Y-64680925D01*
X190645590Y-64697962D01*
X190013282Y-65330269D01*
X190013282Y-65330270D01*
X190067449Y-65369624D01*
X190256782Y-65466095D01*
X190458870Y-65531757D01*
X190668754Y-65565000D01*
X190881246Y-65565000D01*
X191091127Y-65531757D01*
X191091130Y-65531757D01*
X191293217Y-65466095D01*
X191482554Y-65369622D01*
X191536716Y-65330270D01*
X191536717Y-65330270D01*
X190904408Y-64697962D01*
X190967993Y-64680925D01*
X191082007Y-64615099D01*
X191175099Y-64522007D01*
X191240925Y-64407993D01*
X191257962Y-64344408D01*
X191863181Y-64949627D01*
X191896666Y-65010950D01*
X191899500Y-65037308D01*
X191899500Y-67364608D01*
X191879815Y-67431647D01*
X191827011Y-67477402D01*
X191757853Y-67487346D01*
X191734419Y-67481366D01*
X191732483Y-67480908D01*
X191672883Y-67474501D01*
X191672881Y-67474500D01*
X191672873Y-67474500D01*
X191672864Y-67474500D01*
X189877129Y-67474500D01*
X189877123Y-67474501D01*
X189817516Y-67480908D01*
X189682671Y-67531202D01*
X189682664Y-67531206D01*
X189567455Y-67617452D01*
X189567452Y-67617455D01*
X189481206Y-67732664D01*
X189481202Y-67732671D01*
X189430908Y-67867517D01*
X189424501Y-67927116D01*
X189424500Y-67927135D01*
X189424500Y-69722870D01*
X189424501Y-69722876D01*
X189430908Y-69782483D01*
X189481202Y-69917328D01*
X189481206Y-69917335D01*
X189567452Y-70032544D01*
X189567455Y-70032547D01*
X189682664Y-70118793D01*
X189682671Y-70118797D01*
X189727618Y-70135561D01*
X189817517Y-70169091D01*
X189877127Y-70175500D01*
X189887685Y-70175499D01*
X189954723Y-70195179D01*
X189975372Y-70211818D01*
X190645591Y-70882037D01*
X190582007Y-70899075D01*
X190467993Y-70964901D01*
X190374901Y-71057993D01*
X190309075Y-71172007D01*
X190292037Y-71235591D01*
X189659728Y-70603282D01*
X189659727Y-70603282D01*
X189620380Y-70657439D01*
X189523904Y-70846782D01*
X189458242Y-71048869D01*
X189458242Y-71048872D01*
X189425000Y-71258753D01*
X189425000Y-71471246D01*
X189458242Y-71681127D01*
X189458242Y-71681130D01*
X189523904Y-71883217D01*
X189620375Y-72072550D01*
X189659728Y-72126716D01*
X190292037Y-71494408D01*
X190309075Y-71557993D01*
X190374901Y-71672007D01*
X190467993Y-71765099D01*
X190582007Y-71830925D01*
X190645590Y-71847962D01*
X190013282Y-72480269D01*
X190013282Y-72480270D01*
X190067449Y-72519624D01*
X190256782Y-72616095D01*
X190458870Y-72681757D01*
X190668754Y-72715000D01*
X190881246Y-72715000D01*
X191091127Y-72681757D01*
X191091130Y-72681757D01*
X191293217Y-72616095D01*
X191482554Y-72519622D01*
X191536716Y-72480270D01*
X191536717Y-72480270D01*
X190904408Y-71847962D01*
X190967993Y-71830925D01*
X191082007Y-71765099D01*
X191175099Y-71672007D01*
X191240925Y-71557993D01*
X191257962Y-71494408D01*
X191863181Y-72099627D01*
X191896666Y-72160950D01*
X191899500Y-72187308D01*
X191899500Y-74514608D01*
X191879815Y-74581647D01*
X191827011Y-74627402D01*
X191757853Y-74637346D01*
X191734419Y-74631366D01*
X191732483Y-74630908D01*
X191672883Y-74624501D01*
X191672881Y-74624500D01*
X191672873Y-74624500D01*
X191672864Y-74624500D01*
X189877129Y-74624500D01*
X189877123Y-74624501D01*
X189817516Y-74630908D01*
X189682671Y-74681202D01*
X189682664Y-74681206D01*
X189567455Y-74767452D01*
X189567452Y-74767455D01*
X189481206Y-74882664D01*
X189481202Y-74882671D01*
X189430908Y-75017517D01*
X189424501Y-75077116D01*
X189424500Y-75077135D01*
X189424500Y-76872870D01*
X189424501Y-76872876D01*
X189430908Y-76932483D01*
X189481202Y-77067328D01*
X189481206Y-77067335D01*
X189567452Y-77182544D01*
X189567455Y-77182547D01*
X189682664Y-77268793D01*
X189682671Y-77268797D01*
X189814082Y-77317810D01*
X189870016Y-77359681D01*
X189894433Y-77425145D01*
X189879582Y-77493418D01*
X189858431Y-77521673D01*
X189744889Y-77635215D01*
X189619951Y-77807179D01*
X189523444Y-77996585D01*
X189457753Y-78198760D01*
X189424500Y-78408713D01*
X189424500Y-78621286D01*
X189454046Y-78807836D01*
X189457754Y-78831243D01*
X189500069Y-78961476D01*
X189523444Y-79033414D01*
X189619951Y-79222820D01*
X189744890Y-79394786D01*
X189895213Y-79545109D01*
X190067179Y-79670048D01*
X190067181Y-79670049D01*
X190067184Y-79670051D01*
X190256588Y-79766557D01*
X190458757Y-79832246D01*
X190668713Y-79865500D01*
X190668714Y-79865500D01*
X190881286Y-79865500D01*
X190881287Y-79865500D01*
X191091243Y-79832246D01*
X191293412Y-79766557D01*
X191482816Y-79670051D01*
X191579567Y-79599758D01*
X191654786Y-79545109D01*
X191654788Y-79545106D01*
X191654792Y-79545104D01*
X191687819Y-79512077D01*
X191749142Y-79478592D01*
X191818834Y-79483576D01*
X191874767Y-79525448D01*
X191899184Y-79590912D01*
X191899500Y-79599758D01*
X191899500Y-81664608D01*
X191879815Y-81731647D01*
X191827011Y-81777402D01*
X191757853Y-81787346D01*
X191734419Y-81781366D01*
X191732483Y-81780908D01*
X191672883Y-81774501D01*
X191672881Y-81774500D01*
X191672873Y-81774500D01*
X191672864Y-81774500D01*
X189877129Y-81774500D01*
X189877123Y-81774501D01*
X189817516Y-81780908D01*
X189682671Y-81831202D01*
X189682664Y-81831206D01*
X189567455Y-81917452D01*
X189567452Y-81917455D01*
X189481206Y-82032664D01*
X189481202Y-82032671D01*
X189430908Y-82167517D01*
X189424501Y-82227116D01*
X189424500Y-82227135D01*
X189424500Y-84022870D01*
X189424501Y-84022876D01*
X189430908Y-84082483D01*
X189481202Y-84217328D01*
X189481206Y-84217335D01*
X189567452Y-84332544D01*
X189567455Y-84332547D01*
X189682664Y-84418793D01*
X189682671Y-84418797D01*
X189814082Y-84467810D01*
X189870016Y-84509681D01*
X189894433Y-84575145D01*
X189879582Y-84643418D01*
X189858431Y-84671673D01*
X189744889Y-84785215D01*
X189619951Y-84957179D01*
X189523444Y-85146585D01*
X189457753Y-85348760D01*
X189430173Y-85522893D01*
X189424500Y-85558713D01*
X189424500Y-85771287D01*
X189457754Y-85981243D01*
X189520292Y-86173715D01*
X189523444Y-86183414D01*
X189619951Y-86372820D01*
X189744890Y-86544786D01*
X189895213Y-86695109D01*
X190067179Y-86820048D01*
X190067181Y-86820049D01*
X190067184Y-86820051D01*
X190256588Y-86916557D01*
X190458757Y-86982246D01*
X190668713Y-87015500D01*
X190668714Y-87015500D01*
X190881286Y-87015500D01*
X190881287Y-87015500D01*
X191091243Y-86982246D01*
X191293412Y-86916557D01*
X191482816Y-86820051D01*
X191504789Y-86804086D01*
X191654786Y-86695109D01*
X191654788Y-86695106D01*
X191654792Y-86695104D01*
X191687819Y-86662077D01*
X191749142Y-86628592D01*
X191818834Y-86633576D01*
X191874767Y-86675448D01*
X191899184Y-86740912D01*
X191899500Y-86749758D01*
X191899500Y-87182152D01*
X191879815Y-87249191D01*
X191827011Y-87294946D01*
X191799692Y-87303769D01*
X191666508Y-87330261D01*
X191666498Y-87330264D01*
X191520827Y-87390602D01*
X191520814Y-87390609D01*
X191389711Y-87478210D01*
X191389707Y-87478213D01*
X191278213Y-87589707D01*
X191278210Y-87589711D01*
X191190609Y-87720814D01*
X191190602Y-87720827D01*
X191130264Y-87866498D01*
X191130261Y-87866510D01*
X191099500Y-88021153D01*
X191099500Y-88178846D01*
X191130261Y-88333489D01*
X191130264Y-88333501D01*
X191190137Y-88478048D01*
X191197606Y-88547517D01*
X191166331Y-88609996D01*
X191106241Y-88645648D01*
X191075576Y-88649500D01*
X189877129Y-88649500D01*
X189877123Y-88649501D01*
X189817516Y-88655908D01*
X189682671Y-88706202D01*
X189682664Y-88706206D01*
X189567455Y-88792452D01*
X189567452Y-88792455D01*
X189481206Y-88907664D01*
X189481202Y-88907671D01*
X189430908Y-89042517D01*
X189424501Y-89102116D01*
X189424500Y-89102135D01*
X189424500Y-90897870D01*
X189424501Y-90897876D01*
X189430908Y-90957483D01*
X189481202Y-91092328D01*
X189481206Y-91092335D01*
X189567452Y-91207544D01*
X189567455Y-91207547D01*
X189682664Y-91293793D01*
X189682671Y-91293797D01*
X189727618Y-91310561D01*
X189817517Y-91344091D01*
X189877127Y-91350500D01*
X189887685Y-91350499D01*
X189954723Y-91370179D01*
X189975372Y-91386818D01*
X190645591Y-92057037D01*
X190582007Y-92074075D01*
X190467993Y-92139901D01*
X190374901Y-92232993D01*
X190309075Y-92347007D01*
X190292037Y-92410591D01*
X189659728Y-91778282D01*
X189659727Y-91778282D01*
X189620380Y-91832439D01*
X189523904Y-92021782D01*
X189458242Y-92223869D01*
X189458242Y-92223872D01*
X189425000Y-92433753D01*
X189425000Y-92646246D01*
X189458242Y-92856127D01*
X189458242Y-92856130D01*
X189523904Y-93058217D01*
X189620375Y-93247550D01*
X189659728Y-93301716D01*
X190292037Y-92669408D01*
X190309075Y-92732993D01*
X190374901Y-92847007D01*
X190467993Y-92940099D01*
X190582007Y-93005925D01*
X190645590Y-93022962D01*
X190013282Y-93655269D01*
X190013282Y-93655270D01*
X190067449Y-93694624D01*
X190256782Y-93791095D01*
X190458870Y-93856757D01*
X190668754Y-93890000D01*
X190881246Y-93890000D01*
X191091127Y-93856757D01*
X191091130Y-93856757D01*
X191293217Y-93791095D01*
X191482554Y-93694622D01*
X191536716Y-93655270D01*
X191536717Y-93655270D01*
X190904408Y-93022962D01*
X190967993Y-93005925D01*
X191082007Y-92940099D01*
X191175099Y-92847007D01*
X191240925Y-92732993D01*
X191257962Y-92669408D01*
X191890270Y-93301717D01*
X191890270Y-93301716D01*
X191929622Y-93247554D01*
X192026095Y-93058217D01*
X192091757Y-92856130D01*
X192091757Y-92856127D01*
X192125000Y-92646246D01*
X192125000Y-92433753D01*
X192091757Y-92223872D01*
X192091757Y-92223869D01*
X192026095Y-92021782D01*
X191929624Y-91832449D01*
X191890270Y-91778282D01*
X191890269Y-91778282D01*
X191257962Y-92410590D01*
X191240925Y-92347007D01*
X191175099Y-92232993D01*
X191082007Y-92139901D01*
X190967993Y-92074075D01*
X190904409Y-92057037D01*
X191574627Y-91386818D01*
X191635950Y-91353333D01*
X191662307Y-91350499D01*
X191672872Y-91350499D01*
X191732483Y-91344091D01*
X191867331Y-91293796D01*
X191982546Y-91207546D01*
X192068796Y-91092331D01*
X192119091Y-90957483D01*
X192119090Y-90957483D01*
X192119348Y-90956794D01*
X192161219Y-90900860D01*
X192226683Y-90876443D01*
X192294956Y-90891294D01*
X192323210Y-90912445D01*
X192858734Y-91447970D01*
X193308591Y-91897827D01*
X193342076Y-91959150D01*
X193341245Y-92015431D01*
X193327401Y-92071100D01*
X193327401Y-92071105D01*
X193327400Y-92071111D01*
X193325168Y-92104023D01*
X193324500Y-92113879D01*
X193324500Y-93016122D01*
X193324501Y-93016125D01*
X193327399Y-93058886D01*
X193327399Y-93058887D01*
X193357933Y-93181666D01*
X193369063Y-93226420D01*
X193373360Y-93243696D01*
X193457967Y-93414292D01*
X193457969Y-93414295D01*
X193577277Y-93562721D01*
X193577278Y-93562722D01*
X193725704Y-93682030D01*
X193725707Y-93682032D01*
X193896302Y-93766639D01*
X193896303Y-93766639D01*
X193896307Y-93766641D01*
X194081111Y-93812600D01*
X194123877Y-93815500D01*
X195526122Y-93815499D01*
X195568889Y-93812600D01*
X195753693Y-93766641D01*
X195924296Y-93682030D01*
X196072722Y-93562722D01*
X196192030Y-93414296D01*
X196276641Y-93243693D01*
X196322600Y-93058889D01*
X196325500Y-93016123D01*
X196325500Y-92816530D01*
X203629500Y-92816530D01*
X203629500Y-93023469D01*
X203669868Y-93226412D01*
X203669870Y-93226420D01*
X203749058Y-93417596D01*
X203864024Y-93589657D01*
X204010342Y-93735975D01*
X204010345Y-93735977D01*
X204182402Y-93850941D01*
X204373580Y-93930130D01*
X204576530Y-93970499D01*
X204576534Y-93970500D01*
X204576535Y-93970500D01*
X205383466Y-93970500D01*
X205383467Y-93970499D01*
X205586420Y-93930130D01*
X205777598Y-93850941D01*
X205949655Y-93735977D01*
X206095977Y-93589655D01*
X206210941Y-93417598D01*
X206290130Y-93226420D01*
X206330500Y-93023465D01*
X206330500Y-92816535D01*
X206330499Y-92816530D01*
X207429500Y-92816530D01*
X207429500Y-93023469D01*
X207469868Y-93226412D01*
X207469870Y-93226420D01*
X207549058Y-93417596D01*
X207664024Y-93589657D01*
X207810342Y-93735975D01*
X207810345Y-93735977D01*
X207982402Y-93850941D01*
X208173580Y-93930130D01*
X208376530Y-93970499D01*
X208376534Y-93970500D01*
X208376535Y-93970500D01*
X209183466Y-93970500D01*
X209183467Y-93970499D01*
X209386420Y-93930130D01*
X209577598Y-93850941D01*
X209749655Y-93735977D01*
X209895977Y-93589655D01*
X210010941Y-93417598D01*
X210090130Y-93226420D01*
X210130500Y-93023465D01*
X210130500Y-92816535D01*
X210090130Y-92613580D01*
X210010941Y-92422402D01*
X209895977Y-92250345D01*
X209895976Y-92250344D01*
X209895975Y-92250342D01*
X209749657Y-92104024D01*
X209626572Y-92021782D01*
X209577598Y-91989059D01*
X209525854Y-91967626D01*
X209386420Y-91909870D01*
X209386412Y-91909868D01*
X209183469Y-91869500D01*
X209183465Y-91869500D01*
X208376535Y-91869500D01*
X208376530Y-91869500D01*
X208173587Y-91909868D01*
X208173579Y-91909870D01*
X207982403Y-91989058D01*
X207810342Y-92104024D01*
X207664024Y-92250342D01*
X207549058Y-92422403D01*
X207469870Y-92613579D01*
X207469868Y-92613587D01*
X207429500Y-92816530D01*
X206330499Y-92816530D01*
X206290130Y-92613580D01*
X206210941Y-92422402D01*
X206095977Y-92250345D01*
X206095976Y-92250344D01*
X206095975Y-92250342D01*
X205949658Y-92104025D01*
X205949652Y-92104020D01*
X205929514Y-92090564D01*
X205884709Y-92036951D01*
X205876003Y-91967626D01*
X205892290Y-91923312D01*
X205943018Y-91839398D01*
X205943019Y-91839396D01*
X205993590Y-91677106D01*
X206000000Y-91606572D01*
X206000000Y-91600000D01*
X203800001Y-91600000D01*
X203800001Y-91606582D01*
X203806408Y-91677102D01*
X203806409Y-91677107D01*
X203856981Y-91839396D01*
X203944927Y-91984877D01*
X203949527Y-91989477D01*
X203983012Y-92050800D01*
X203978028Y-92120492D01*
X203949528Y-92164839D01*
X203864023Y-92250344D01*
X203749058Y-92422403D01*
X203669870Y-92613579D01*
X203669868Y-92613587D01*
X203629500Y-92816530D01*
X196325500Y-92816530D01*
X196325499Y-92540000D01*
X196325499Y-92113877D01*
X196325498Y-92113876D01*
X196322600Y-92071111D01*
X196276641Y-91886307D01*
X196223066Y-91778282D01*
X196195649Y-91723000D01*
X199625000Y-91723000D01*
X199635608Y-91842325D01*
X199635609Y-91842328D01*
X199691557Y-92037861D01*
X199785721Y-92218129D01*
X199914246Y-92375753D01*
X200071870Y-92504278D01*
X200252138Y-92598442D01*
X200447671Y-92654390D01*
X200447674Y-92654391D01*
X200566999Y-92664999D01*
X200567002Y-92665000D01*
X200875000Y-92665000D01*
X201375000Y-92665000D01*
X201682998Y-92665000D01*
X201683000Y-92664999D01*
X201802325Y-92654391D01*
X201802328Y-92654390D01*
X201997861Y-92598442D01*
X202178129Y-92504278D01*
X202335753Y-92375753D01*
X202464278Y-92218129D01*
X202558442Y-92037861D01*
X202614390Y-91842328D01*
X202614391Y-91842325D01*
X202624999Y-91723000D01*
X202625000Y-91722998D01*
X202625000Y-90515000D01*
X201375000Y-90515000D01*
X201375000Y-92665000D01*
X200875000Y-92665000D01*
X200875000Y-90515000D01*
X199625000Y-90515000D01*
X199625000Y-91723000D01*
X196195649Y-91723000D01*
X196192032Y-91715707D01*
X196192030Y-91715704D01*
X196072724Y-91567280D01*
X196072722Y-91567278D01*
X196003112Y-91511324D01*
X195963196Y-91453985D01*
X195960616Y-91384163D01*
X195996194Y-91324030D01*
X196003115Y-91318033D01*
X196072366Y-91262367D01*
X196072367Y-91262366D01*
X196191607Y-91114025D01*
X196191609Y-91114022D01*
X196276168Y-90943523D01*
X196322102Y-90758824D01*
X196325000Y-90716096D01*
X196325000Y-90515000D01*
X194949000Y-90515000D01*
X194881961Y-90495315D01*
X194836206Y-90442511D01*
X194825000Y-90391000D01*
X194825000Y-90139000D01*
X194844685Y-90071961D01*
X194897489Y-90026206D01*
X194949000Y-90015000D01*
X196325000Y-90015000D01*
X196325000Y-89813903D01*
X196322102Y-89771175D01*
X196276168Y-89586476D01*
X196191609Y-89415977D01*
X196191607Y-89415974D01*
X196072367Y-89267633D01*
X196072366Y-89267632D01*
X196003115Y-89211967D01*
X195963196Y-89154624D01*
X195960616Y-89084802D01*
X195996194Y-89024669D01*
X196003089Y-89018694D01*
X196072722Y-88962722D01*
X196192030Y-88814296D01*
X196195649Y-88806999D01*
X199625000Y-88806999D01*
X199625000Y-90015000D01*
X200875000Y-90015000D01*
X201375000Y-90015000D01*
X202625000Y-90015000D01*
X202625000Y-88807002D01*
X202624999Y-88806999D01*
X202614391Y-88687674D01*
X202614390Y-88687671D01*
X202558442Y-88492138D01*
X202464278Y-88311870D01*
X202335753Y-88154246D01*
X202178129Y-88025721D01*
X201997861Y-87931557D01*
X201802328Y-87875609D01*
X201802325Y-87875608D01*
X201683000Y-87865000D01*
X201375000Y-87865000D01*
X201375000Y-90015000D01*
X200875000Y-90015000D01*
X200875000Y-87865000D01*
X200566999Y-87865000D01*
X200447674Y-87875608D01*
X200447671Y-87875609D01*
X200252138Y-87931557D01*
X200071870Y-88025721D01*
X199914246Y-88154246D01*
X199785721Y-88311870D01*
X199691557Y-88492138D01*
X199635609Y-88687671D01*
X199635608Y-88687674D01*
X199625000Y-88806999D01*
X196195649Y-88806999D01*
X196276641Y-88643693D01*
X196322600Y-88458889D01*
X196325500Y-88416123D01*
X196325499Y-87513878D01*
X196322600Y-87471111D01*
X196276641Y-87286307D01*
X196224985Y-87182152D01*
X196192032Y-87115707D01*
X196192030Y-87115704D01*
X196072722Y-86967278D01*
X196072721Y-86967277D01*
X195924295Y-86847969D01*
X195924292Y-86847967D01*
X195899331Y-86835588D01*
X195848018Y-86788167D01*
X195830488Y-86720532D01*
X195852308Y-86654157D01*
X195906549Y-86610115D01*
X195954425Y-86600500D01*
X200016973Y-86600500D01*
X200016989Y-86600501D01*
X200024585Y-86600501D01*
X200182696Y-86600501D01*
X200182699Y-86600501D01*
X200335427Y-86559577D01*
X200403243Y-86520423D01*
X200472358Y-86480520D01*
X200584162Y-86368716D01*
X200584162Y-86368714D01*
X200594366Y-86358511D01*
X200594369Y-86358506D01*
X201612820Y-85340056D01*
X201674142Y-85306572D01*
X201743834Y-85311556D01*
X201799767Y-85353428D01*
X201824184Y-85418892D01*
X201824500Y-85427738D01*
X201824500Y-85718330D01*
X201824499Y-85718348D01*
X201824499Y-85884054D01*
X201824498Y-85884054D01*
X201824499Y-85884057D01*
X201865423Y-86036785D01*
X201865424Y-86036787D01*
X201865423Y-86036787D01*
X201881173Y-86064065D01*
X201881175Y-86064067D01*
X201881176Y-86064069D01*
X201923378Y-86137167D01*
X201944479Y-86173715D01*
X202063349Y-86292585D01*
X202063355Y-86292590D01*
X203219478Y-87448713D01*
X203219480Y-87448716D01*
X203331284Y-87560520D01*
X203331286Y-87560521D01*
X203363181Y-87592416D01*
X203396666Y-87653739D01*
X203399500Y-87680097D01*
X203399500Y-89533330D01*
X203399499Y-89533348D01*
X203399499Y-89699054D01*
X203399498Y-89699054D01*
X203399499Y-89699057D01*
X203440423Y-89851785D01*
X203461457Y-89888216D01*
X203500139Y-89955216D01*
X203519479Y-89988715D01*
X203763181Y-90232417D01*
X203796666Y-90293740D01*
X203799500Y-90320095D01*
X203799500Y-90365798D01*
X203799501Y-90365800D01*
X203805821Y-90435375D01*
X203805823Y-90435383D01*
X203855708Y-90595470D01*
X203855709Y-90595472D01*
X203897703Y-90664939D01*
X203915539Y-90732494D01*
X203897704Y-90793236D01*
X203856981Y-90860601D01*
X203856980Y-90860603D01*
X203806409Y-91022893D01*
X203800000Y-91093427D01*
X203800000Y-91100000D01*
X205999999Y-91100000D01*
X205999999Y-91093417D01*
X205993591Y-91022897D01*
X205993590Y-91022892D01*
X205943018Y-90860603D01*
X205902295Y-90793238D01*
X205884459Y-90725683D01*
X205902294Y-90664941D01*
X205944291Y-90595471D01*
X205994177Y-90435380D01*
X206000500Y-90365801D01*
X206000499Y-89874200D01*
X206000499Y-89874191D01*
X205994178Y-89804623D01*
X205994176Y-89804616D01*
X205961282Y-89699057D01*
X205944291Y-89644529D01*
X205944290Y-89644527D01*
X205942162Y-89637698D01*
X205941010Y-89567838D01*
X205943316Y-89561443D01*
X205943281Y-89561432D01*
X205988607Y-89415974D01*
X205994315Y-89397657D01*
X206000500Y-89329594D01*
X206000500Y-88870406D01*
X205994315Y-88802343D01*
X205964356Y-88706202D01*
X205943281Y-88638568D01*
X205946021Y-88637713D01*
X205938264Y-88581727D01*
X205944143Y-88561700D01*
X205943281Y-88561432D01*
X205968316Y-88481088D01*
X205994315Y-88397657D01*
X206000500Y-88329594D01*
X206000500Y-87870406D01*
X205994315Y-87802343D01*
X205974338Y-87738236D01*
X205943281Y-87638568D01*
X205945777Y-87637790D01*
X205937904Y-87580896D01*
X205942162Y-87562303D01*
X205968366Y-87478210D01*
X205994177Y-87395380D01*
X206000500Y-87325801D01*
X206000499Y-86834200D01*
X206000499Y-86834191D01*
X205994178Y-86764623D01*
X205994176Y-86764616D01*
X205965028Y-86671076D01*
X205944291Y-86604529D01*
X205902294Y-86535057D01*
X205884459Y-86467505D01*
X205902296Y-86406759D01*
X205943018Y-86339398D01*
X205943020Y-86339393D01*
X205993590Y-86177106D01*
X206000000Y-86106572D01*
X206000000Y-86100000D01*
X203800001Y-86100000D01*
X203772299Y-86127702D01*
X203710976Y-86161187D01*
X203641284Y-86156203D01*
X203596937Y-86127702D01*
X203061819Y-85592584D01*
X203028334Y-85531261D01*
X203025500Y-85504903D01*
X203025500Y-84176530D01*
X203629500Y-84176530D01*
X203629500Y-84383469D01*
X203669868Y-84586412D01*
X203669870Y-84586420D01*
X203689949Y-84634896D01*
X203749059Y-84777598D01*
X203864023Y-84949655D01*
X203949529Y-85035161D01*
X203983013Y-85096482D01*
X203978029Y-85166174D01*
X203949533Y-85210518D01*
X203944923Y-85215128D01*
X203856980Y-85360603D01*
X203806409Y-85522893D01*
X203800000Y-85593427D01*
X203800000Y-85600000D01*
X205999999Y-85600000D01*
X205999999Y-85593417D01*
X205993591Y-85522897D01*
X205993590Y-85522892D01*
X205943018Y-85360603D01*
X205892288Y-85276685D01*
X205874452Y-85209131D01*
X205895969Y-85142657D01*
X205929511Y-85109436D01*
X205949655Y-85095977D01*
X206095977Y-84949655D01*
X206210941Y-84777598D01*
X206290130Y-84586420D01*
X206330500Y-84383465D01*
X206330500Y-84176535D01*
X206330499Y-84176530D01*
X207429500Y-84176530D01*
X207429500Y-84383469D01*
X207469868Y-84586412D01*
X207469870Y-84586420D01*
X207489949Y-84634896D01*
X207549059Y-84777598D01*
X207563350Y-84798986D01*
X207664024Y-84949657D01*
X207810342Y-85095975D01*
X207810345Y-85095977D01*
X207982402Y-85210941D01*
X208173580Y-85290130D01*
X208364454Y-85328097D01*
X208376530Y-85330499D01*
X208376534Y-85330500D01*
X208376535Y-85330500D01*
X209183466Y-85330500D01*
X209183467Y-85330499D01*
X209386420Y-85290130D01*
X209577598Y-85210941D01*
X209749655Y-85095977D01*
X209895977Y-84949655D01*
X210010941Y-84777598D01*
X210090130Y-84586420D01*
X210130500Y-84383465D01*
X210130500Y-84176535D01*
X210090130Y-83973580D01*
X210010941Y-83782402D01*
X209895977Y-83610345D01*
X209895975Y-83610342D01*
X209749657Y-83464024D01*
X209639929Y-83390707D01*
X209577598Y-83349059D01*
X209386420Y-83269870D01*
X209386412Y-83269868D01*
X209183469Y-83229500D01*
X209183465Y-83229500D01*
X208376535Y-83229500D01*
X208376530Y-83229500D01*
X208173587Y-83269868D01*
X208173579Y-83269870D01*
X207982403Y-83349058D01*
X207810342Y-83464024D01*
X207664024Y-83610342D01*
X207549058Y-83782403D01*
X207469870Y-83973579D01*
X207469868Y-83973587D01*
X207429500Y-84176530D01*
X206330499Y-84176530D01*
X206290130Y-83973580D01*
X206210941Y-83782402D01*
X206095977Y-83610345D01*
X206095975Y-83610342D01*
X205949657Y-83464024D01*
X205839929Y-83390707D01*
X205777598Y-83349059D01*
X205586420Y-83269870D01*
X205586412Y-83269868D01*
X205383469Y-83229500D01*
X205383465Y-83229500D01*
X204576535Y-83229500D01*
X204576530Y-83229500D01*
X204373587Y-83269868D01*
X204373579Y-83269870D01*
X204182403Y-83349058D01*
X204010342Y-83464024D01*
X203864024Y-83610342D01*
X203749058Y-83782403D01*
X203669870Y-83973579D01*
X203669868Y-83973587D01*
X203629500Y-84176530D01*
X203025500Y-84176530D01*
X203025500Y-83757702D01*
X203025501Y-83757699D01*
X203025501Y-83599585D01*
X203025500Y-83599581D01*
X203025500Y-77199097D01*
X203045185Y-77132058D01*
X203097989Y-77086303D01*
X203167147Y-77076359D01*
X203230703Y-77105384D01*
X203237181Y-77111416D01*
X203804837Y-77679072D01*
X203838322Y-77740395D01*
X203833338Y-77810087D01*
X203792646Y-77865126D01*
X203777077Y-77877073D01*
X203680899Y-78002413D01*
X203620444Y-78148368D01*
X203612987Y-78205000D01*
X204120500Y-78205000D01*
X204129185Y-78207550D01*
X204138146Y-78206262D01*
X204162184Y-78217240D01*
X204187539Y-78224685D01*
X204193466Y-78231526D01*
X204201702Y-78235287D01*
X204215990Y-78257520D01*
X204233294Y-78277489D01*
X204235581Y-78288002D01*
X204239477Y-78294064D01*
X204244500Y-78328999D01*
X204244501Y-78480999D01*
X204224817Y-78548039D01*
X204172013Y-78593794D01*
X204120501Y-78605000D01*
X203612990Y-78605000D01*
X203612988Y-78605001D01*
X203620442Y-78661627D01*
X203620444Y-78661633D01*
X203680899Y-78807585D01*
X203777075Y-78932924D01*
X203902413Y-79029100D01*
X204048365Y-79089554D01*
X204048369Y-79089555D01*
X204135000Y-79100961D01*
X204168741Y-79071371D01*
X204185244Y-79063715D01*
X204198989Y-79051805D01*
X204216275Y-79049319D01*
X204232122Y-79041968D01*
X204250143Y-79044449D01*
X204268147Y-79041861D01*
X204284035Y-79049117D01*
X204301339Y-79051500D01*
X204315155Y-79063329D01*
X204331703Y-79070886D01*
X204341147Y-79085581D01*
X204354414Y-79096940D01*
X204359642Y-79114360D01*
X204369477Y-79129664D01*
X204374298Y-79163195D01*
X204374498Y-79163861D01*
X204374500Y-79164599D01*
X204374500Y-79395400D01*
X204354815Y-79462439D01*
X204302011Y-79508194D01*
X204232853Y-79518138D01*
X204169297Y-79489113D01*
X204168741Y-79488628D01*
X204135000Y-79459038D01*
X204048369Y-79470444D01*
X204048365Y-79470445D01*
X203902413Y-79530899D01*
X203777075Y-79627075D01*
X203680899Y-79752413D01*
X203620444Y-79898368D01*
X203612987Y-79955000D01*
X204120500Y-79955000D01*
X204129185Y-79957550D01*
X204138146Y-79956262D01*
X204162184Y-79967240D01*
X204187539Y-79974685D01*
X204193466Y-79981526D01*
X204201702Y-79985287D01*
X204215990Y-80007520D01*
X204233294Y-80027489D01*
X204235581Y-80038002D01*
X204239477Y-80044064D01*
X204244500Y-80078999D01*
X204244501Y-80230999D01*
X204224817Y-80298039D01*
X204172013Y-80343794D01*
X204120501Y-80355000D01*
X203612990Y-80355000D01*
X203612988Y-80355001D01*
X203620442Y-80411627D01*
X203620444Y-80411633D01*
X203680899Y-80557585D01*
X203777075Y-80682924D01*
X203902413Y-80779100D01*
X204048365Y-80839554D01*
X204048369Y-80839555D01*
X204135000Y-80850961D01*
X204135000Y-80681431D01*
X204141336Y-80659852D01*
X204143070Y-80637429D01*
X204150990Y-80626975D01*
X204154685Y-80614392D01*
X204171681Y-80599664D01*
X204185263Y-80581738D01*
X204197577Y-80577225D01*
X204207489Y-80568637D01*
X204229748Y-80565436D01*
X204250866Y-80557698D01*
X204263665Y-80560559D01*
X204276647Y-80558693D01*
X204297105Y-80568036D01*
X204319053Y-80572943D01*
X204331701Y-80583835D01*
X204340203Y-80587718D01*
X204347185Y-80594256D01*
X204352641Y-80599775D01*
X204416718Y-80683282D01*
X204493224Y-80741987D01*
X204499185Y-80748017D01*
X204511889Y-80771605D01*
X204527689Y-80793243D01*
X204529672Y-80804623D01*
X204532316Y-80809532D01*
X204531766Y-80816638D01*
X204535000Y-80835192D01*
X204535000Y-80850959D01*
X204535001Y-80850960D01*
X204621622Y-80839558D01*
X204621917Y-80839479D01*
X204622222Y-80839478D01*
X204629690Y-80838496D01*
X204629819Y-80839478D01*
X204680115Y-80839476D01*
X204680180Y-80838983D01*
X204683925Y-80839476D01*
X204686121Y-80839476D01*
X204688230Y-80840040D01*
X204688238Y-80840044D01*
X204805639Y-80855500D01*
X205144360Y-80855499D01*
X205144363Y-80855499D01*
X205261753Y-80840046D01*
X205261757Y-80840044D01*
X205261762Y-80840044D01*
X205407841Y-80779536D01*
X205533282Y-80683282D01*
X205629536Y-80557841D01*
X205690044Y-80411762D01*
X205705500Y-80294361D01*
X205705499Y-80015640D01*
X205705499Y-80015639D01*
X205705499Y-80015636D01*
X205690046Y-79898246D01*
X205690044Y-79898241D01*
X205690044Y-79898238D01*
X205629536Y-79752159D01*
X205629535Y-79752158D01*
X205629535Y-79752157D01*
X205601124Y-79715131D01*
X205575930Y-79649962D01*
X205575500Y-79639645D01*
X205575500Y-78920354D01*
X205595185Y-78853315D01*
X205601113Y-78844881D01*
X205629536Y-78807841D01*
X205690044Y-78661762D01*
X205705500Y-78544361D01*
X205705499Y-78265640D01*
X205705499Y-78265639D01*
X205705499Y-78265636D01*
X205690046Y-78148246D01*
X205690044Y-78148241D01*
X205690044Y-78148238D01*
X205629536Y-78002159D01*
X205629535Y-78002158D01*
X205629535Y-78002157D01*
X205594961Y-77957100D01*
X205573563Y-77913711D01*
X205534577Y-77768216D01*
X205518515Y-77740395D01*
X205455524Y-77631290D01*
X205455518Y-77631282D01*
X202912590Y-75088355D01*
X202905521Y-75081286D01*
X202905520Y-75081284D01*
X202793716Y-74969480D01*
X202793713Y-74969478D01*
X200374319Y-72550084D01*
X200340834Y-72488761D01*
X200338000Y-72462403D01*
X200338000Y-70996577D01*
X202649500Y-70996577D01*
X202649500Y-72693422D01*
X202680290Y-72887826D01*
X202741117Y-73075029D01*
X202807769Y-73205840D01*
X202830476Y-73250405D01*
X202946172Y-73409646D01*
X203085354Y-73548828D01*
X203244595Y-73664524D01*
X203282362Y-73683767D01*
X203419970Y-73753882D01*
X203419972Y-73753882D01*
X203419975Y-73753884D01*
X203520317Y-73786487D01*
X203607173Y-73814709D01*
X203801578Y-73845500D01*
X203801583Y-73845500D01*
X203998422Y-73845500D01*
X204192826Y-73814709D01*
X204380025Y-73753884D01*
X204555405Y-73664524D01*
X204714646Y-73548828D01*
X204853828Y-73409646D01*
X204969524Y-73250405D01*
X205058884Y-73075025D01*
X205119709Y-72887826D01*
X205147082Y-72715000D01*
X205150500Y-72693422D01*
X205150500Y-70996577D01*
X207729500Y-70996577D01*
X207729500Y-72693422D01*
X207760290Y-72887826D01*
X207821117Y-73075029D01*
X207887769Y-73205840D01*
X207910476Y-73250405D01*
X208026172Y-73409646D01*
X208165354Y-73548828D01*
X208324595Y-73664524D01*
X208362362Y-73683767D01*
X208499970Y-73753882D01*
X208499972Y-73753882D01*
X208499975Y-73753884D01*
X208600317Y-73786487D01*
X208687173Y-73814709D01*
X208881578Y-73845500D01*
X208881583Y-73845500D01*
X209078422Y-73845500D01*
X209272826Y-73814709D01*
X209460025Y-73753884D01*
X209635405Y-73664524D01*
X209794646Y-73548828D01*
X209933828Y-73409646D01*
X210049524Y-73250405D01*
X210138884Y-73075025D01*
X210199709Y-72887826D01*
X210227082Y-72715000D01*
X210230500Y-72693422D01*
X210230500Y-70996577D01*
X210199709Y-70802173D01*
X210138882Y-70614970D01*
X210049523Y-70439594D01*
X210045682Y-70434307D01*
X209933828Y-70280354D01*
X209794646Y-70141172D01*
X209635405Y-70025476D01*
X209460029Y-69936117D01*
X209272826Y-69875290D01*
X209078422Y-69844500D01*
X209078417Y-69844500D01*
X208881583Y-69844500D01*
X208881578Y-69844500D01*
X208687173Y-69875290D01*
X208499970Y-69936117D01*
X208324594Y-70025476D01*
X208233741Y-70091485D01*
X208165354Y-70141172D01*
X208165352Y-70141174D01*
X208165351Y-70141174D01*
X208026174Y-70280351D01*
X208026174Y-70280352D01*
X208026172Y-70280354D01*
X208013953Y-70297172D01*
X207910476Y-70439594D01*
X207821117Y-70614970D01*
X207760290Y-70802173D01*
X207729500Y-70996577D01*
X205150500Y-70996577D01*
X205119709Y-70802173D01*
X205058882Y-70614970D01*
X204969523Y-70439594D01*
X204965682Y-70434307D01*
X204853828Y-70280354D01*
X204714646Y-70141172D01*
X204555405Y-70025476D01*
X204380029Y-69936117D01*
X204192826Y-69875290D01*
X203998422Y-69844500D01*
X203998417Y-69844500D01*
X203801583Y-69844500D01*
X203801578Y-69844500D01*
X203607173Y-69875290D01*
X203419970Y-69936117D01*
X203244594Y-70025476D01*
X203153741Y-70091485D01*
X203085354Y-70141172D01*
X203085352Y-70141174D01*
X203085351Y-70141174D01*
X202946174Y-70280351D01*
X202946174Y-70280352D01*
X202946172Y-70280354D01*
X202933953Y-70297172D01*
X202830476Y-70439594D01*
X202741117Y-70614970D01*
X202680290Y-70802173D01*
X202649500Y-70996577D01*
X200338000Y-70996577D01*
X200338000Y-70358445D01*
X200338000Y-70358443D01*
X200297077Y-70205716D01*
X200279632Y-70175500D01*
X200218024Y-70068790D01*
X200218018Y-70068782D01*
X200134573Y-69985337D01*
X200101088Y-69924014D01*
X200100637Y-69921847D01*
X200100500Y-69921158D01*
X200069737Y-69766503D01*
X200051664Y-69722870D01*
X200009863Y-69621952D01*
X200002394Y-69552483D01*
X200033669Y-69490004D01*
X200093759Y-69454352D01*
X200124424Y-69450500D01*
X203138768Y-69450500D01*
X203138769Y-69450499D01*
X203193538Y-69439605D01*
X203303074Y-69417818D01*
X203303078Y-69417816D01*
X203303082Y-69417816D01*
X203348415Y-69399037D01*
X203457863Y-69353704D01*
X203597162Y-69260627D01*
X208286508Y-64571278D01*
X208347829Y-64537795D01*
X208417521Y-64542779D01*
X208430481Y-64548476D01*
X208499967Y-64583881D01*
X208499972Y-64583882D01*
X208499975Y-64583884D01*
X208596044Y-64615099D01*
X208687173Y-64644709D01*
X208881578Y-64675500D01*
X208881583Y-64675500D01*
X209078422Y-64675500D01*
X209272826Y-64644709D01*
X209460025Y-64583884D01*
X209635405Y-64494524D01*
X209794646Y-64378828D01*
X209933828Y-64239646D01*
X210049524Y-64080405D01*
X210138884Y-63905025D01*
X210199709Y-63717826D01*
X210210652Y-63648735D01*
X210230500Y-63523422D01*
X210230500Y-61826577D01*
X210199709Y-61632173D01*
X210138882Y-61444970D01*
X210049523Y-61269594D01*
X210045682Y-61264307D01*
X209933828Y-61110354D01*
X209794646Y-60971172D01*
X209635405Y-60855476D01*
X209460029Y-60766117D01*
X209272826Y-60705290D01*
X209078422Y-60674500D01*
X209078417Y-60674500D01*
X208881583Y-60674500D01*
X208881578Y-60674500D01*
X208687173Y-60705290D01*
X208499970Y-60766117D01*
X208324594Y-60855476D01*
X208233741Y-60921485D01*
X208165354Y-60971172D01*
X208165352Y-60971174D01*
X208165351Y-60971174D01*
X208026174Y-61110351D01*
X208026174Y-61110352D01*
X208026172Y-61110354D01*
X208013953Y-61127172D01*
X207910476Y-61269594D01*
X207821117Y-61444970D01*
X207760290Y-61632173D01*
X207729500Y-61826577D01*
X207729500Y-62671349D01*
X207709815Y-62738388D01*
X207693181Y-62759030D01*
X202739030Y-67713181D01*
X202677707Y-67746666D01*
X202651349Y-67749500D01*
X193224500Y-67749500D01*
X193157461Y-67729815D01*
X193111706Y-67677011D01*
X193100500Y-67625500D01*
X193100500Y-63320945D01*
X193100500Y-63320943D01*
X193059577Y-63168216D01*
X193043821Y-63140925D01*
X192980524Y-63031290D01*
X192980521Y-63031286D01*
X192980520Y-63031284D01*
X192910555Y-62961319D01*
X192910555Y-62961318D01*
X192887465Y-62938229D01*
X192868716Y-62919480D01*
X192868713Y-62919478D01*
X192161818Y-62212583D01*
X192128333Y-62151260D01*
X192125499Y-62124902D01*
X192125499Y-61127155D01*
X195030000Y-61127155D01*
X195030000Y-62425000D01*
X195846988Y-62425000D01*
X195814075Y-62482007D01*
X195780000Y-62609174D01*
X195780000Y-62740826D01*
X195814075Y-62867993D01*
X195846988Y-62925000D01*
X195030000Y-62925000D01*
X195030000Y-64222844D01*
X195036401Y-64282372D01*
X195036403Y-64282379D01*
X195086645Y-64417086D01*
X195086649Y-64417093D01*
X195172809Y-64532187D01*
X195172812Y-64532190D01*
X195287906Y-64618350D01*
X195287913Y-64618354D01*
X195422620Y-64668596D01*
X195422627Y-64668598D01*
X195482155Y-64674999D01*
X195482172Y-64675000D01*
X196030000Y-64675000D01*
X196030000Y-63108012D01*
X196087007Y-63140925D01*
X196214174Y-63175000D01*
X196345826Y-63175000D01*
X196472993Y-63140925D01*
X196530000Y-63108012D01*
X196530000Y-64675000D01*
X197077828Y-64675000D01*
X197077844Y-64674999D01*
X197137372Y-64668598D01*
X197137379Y-64668596D01*
X197272086Y-64618354D01*
X197272093Y-64618350D01*
X197387187Y-64532190D01*
X197387190Y-64532187D01*
X197473350Y-64417093D01*
X197473354Y-64417086D01*
X197523596Y-64282379D01*
X197523598Y-64282372D01*
X197529999Y-64222844D01*
X197530000Y-64222827D01*
X197530000Y-64158578D01*
X197549685Y-64091539D01*
X197602489Y-64045784D01*
X197671647Y-64035840D01*
X197735203Y-64064865D01*
X197754314Y-64085688D01*
X197866172Y-64239646D01*
X198005354Y-64378828D01*
X198164595Y-64494524D01*
X198218534Y-64522007D01*
X198339970Y-64583882D01*
X198339972Y-64583882D01*
X198339975Y-64583884D01*
X198436044Y-64615099D01*
X198527173Y-64644709D01*
X198721578Y-64675500D01*
X198721583Y-64675500D01*
X198918422Y-64675500D01*
X199112826Y-64644709D01*
X199300025Y-64583884D01*
X199475405Y-64494524D01*
X199634646Y-64378828D01*
X199773828Y-64239646D01*
X199889524Y-64080405D01*
X199978884Y-63905025D01*
X200039709Y-63717826D01*
X200050652Y-63648735D01*
X200070500Y-63523422D01*
X200070500Y-61826577D01*
X202649500Y-61826577D01*
X202649500Y-63523422D01*
X202680290Y-63717826D01*
X202741117Y-63905029D01*
X202800721Y-64022007D01*
X202830476Y-64080405D01*
X202946172Y-64239646D01*
X203085354Y-64378828D01*
X203244595Y-64494524D01*
X203298534Y-64522007D01*
X203419970Y-64583882D01*
X203419972Y-64583882D01*
X203419975Y-64583884D01*
X203516044Y-64615099D01*
X203607173Y-64644709D01*
X203801578Y-64675500D01*
X203801583Y-64675500D01*
X203998422Y-64675500D01*
X204192826Y-64644709D01*
X204380025Y-64583884D01*
X204555405Y-64494524D01*
X204714646Y-64378828D01*
X204853828Y-64239646D01*
X204969524Y-64080405D01*
X205058884Y-63905025D01*
X205119709Y-63717826D01*
X205130652Y-63648735D01*
X205150500Y-63523422D01*
X205150500Y-61826577D01*
X205119709Y-61632173D01*
X205058882Y-61444970D01*
X204969523Y-61269594D01*
X204965682Y-61264307D01*
X204853828Y-61110354D01*
X204714646Y-60971172D01*
X204555405Y-60855476D01*
X204380029Y-60766117D01*
X204192826Y-60705290D01*
X203998422Y-60674500D01*
X203998417Y-60674500D01*
X203801583Y-60674500D01*
X203801578Y-60674500D01*
X203607173Y-60705290D01*
X203419970Y-60766117D01*
X203244594Y-60855476D01*
X203153741Y-60921485D01*
X203085354Y-60971172D01*
X203085352Y-60971174D01*
X203085351Y-60971174D01*
X202946174Y-61110351D01*
X202946174Y-61110352D01*
X202946172Y-61110354D01*
X202933953Y-61127172D01*
X202830476Y-61269594D01*
X202741117Y-61444970D01*
X202680290Y-61632173D01*
X202649500Y-61826577D01*
X200070500Y-61826577D01*
X200039709Y-61632173D01*
X199978882Y-61444970D01*
X199889523Y-61269594D01*
X199885682Y-61264307D01*
X199773828Y-61110354D01*
X199634646Y-60971172D01*
X199475405Y-60855476D01*
X199300029Y-60766117D01*
X199112826Y-60705290D01*
X198918422Y-60674500D01*
X198918417Y-60674500D01*
X198721583Y-60674500D01*
X198721578Y-60674500D01*
X198527173Y-60705290D01*
X198339970Y-60766117D01*
X198164594Y-60855476D01*
X198073741Y-60921485D01*
X198005354Y-60971172D01*
X198005352Y-60971174D01*
X198005351Y-60971174D01*
X197866174Y-61110351D01*
X197866174Y-61110352D01*
X197866172Y-61110354D01*
X197853953Y-61127172D01*
X197754318Y-61264307D01*
X197698988Y-61306972D01*
X197629374Y-61312951D01*
X197567579Y-61280345D01*
X197533222Y-61219506D01*
X197530000Y-61191421D01*
X197530000Y-61127172D01*
X197529999Y-61127155D01*
X197523598Y-61067627D01*
X197523596Y-61067620D01*
X197473354Y-60932913D01*
X197473350Y-60932906D01*
X197387190Y-60817812D01*
X197387187Y-60817809D01*
X197272093Y-60731649D01*
X197272086Y-60731645D01*
X197137379Y-60681403D01*
X197137372Y-60681401D01*
X197077844Y-60675000D01*
X196530000Y-60675000D01*
X196530000Y-62241988D01*
X196472993Y-62209075D01*
X196345826Y-62175000D01*
X196214174Y-62175000D01*
X196087007Y-62209075D01*
X196030000Y-62241988D01*
X196030000Y-60675000D01*
X195482155Y-60675000D01*
X195422627Y-60681401D01*
X195422620Y-60681403D01*
X195287913Y-60731645D01*
X195287906Y-60731649D01*
X195172812Y-60817809D01*
X195172809Y-60817812D01*
X195086649Y-60932906D01*
X195086645Y-60932913D01*
X195036403Y-61067620D01*
X195036401Y-61067627D01*
X195030000Y-61127155D01*
X192125499Y-61127155D01*
X192125499Y-60777129D01*
X192125498Y-60777123D01*
X192125497Y-60777116D01*
X192119091Y-60717517D01*
X192105621Y-60681403D01*
X192068797Y-60582671D01*
X192068793Y-60582664D01*
X191982547Y-60467456D01*
X191982548Y-60467456D01*
X191982546Y-60467454D01*
X191924186Y-60423765D01*
X191882316Y-60367833D01*
X191877332Y-60298141D01*
X191910817Y-60236818D01*
X191972141Y-60203334D01*
X191998498Y-60200500D01*
X210709844Y-60200500D01*
X210751236Y-60200500D01*
X210759860Y-60203032D01*
X210768757Y-60201744D01*
X210792863Y-60212723D01*
X210818275Y-60220185D01*
X210824160Y-60226977D01*
X210832343Y-60230704D01*
X210846688Y-60252975D01*
X210864030Y-60272989D01*
X210866308Y-60283437D01*
X210870177Y-60289443D01*
X210875181Y-60324124D01*
X210875236Y-60324373D01*
X210875236Y-60365892D01*
X210875278Y-60366052D01*
X210875287Y-60374229D01*
X210875284Y-60374236D01*
X210875287Y-60374269D01*
X210899545Y-94875352D01*
X210879908Y-94942405D01*
X210827136Y-94988197D01*
X210775540Y-94999438D01*
X210734193Y-94999437D01*
X210734191Y-94999437D01*
X210725953Y-94999437D01*
X210725909Y-94999440D01*
X180704003Y-94999440D01*
X180703511Y-94999439D01*
X180693558Y-94999399D01*
X180691223Y-94998799D01*
X180649260Y-94999223D01*
X180648305Y-94999220D01*
X180615607Y-94989478D01*
X180582815Y-94980208D01*
X180582214Y-94979529D01*
X180581344Y-94979270D01*
X180559080Y-94953369D01*
X180536529Y-94927869D01*
X180536307Y-94926877D01*
X180535799Y-94926285D01*
X180535165Y-94921748D01*
X180524797Y-94875221D01*
X180524797Y-94826343D01*
X180524744Y-94825546D01*
X180524018Y-93791095D01*
X180508471Y-71652007D01*
X180508192Y-71253968D01*
X180505543Y-67481366D01*
X180500517Y-60324586D01*
X180520155Y-60257534D01*
X180572926Y-60211742D01*
X180624517Y-60200500D01*
X180665892Y-60200500D01*
X189551502Y-60200500D01*
X189618541Y-60220185D01*
G37*
%TD.AperFunction*%
%TA.AperFunction,Conductor*%
G36*
X193305703Y-88465208D02*
G01*
X193343477Y-88523986D01*
X193344831Y-88528981D01*
X193373359Y-88643693D01*
X193373360Y-88643696D01*
X193457967Y-88814292D01*
X193457969Y-88814295D01*
X193577277Y-88962721D01*
X193577278Y-88962722D01*
X193646884Y-89018673D01*
X193686803Y-89076016D01*
X193689383Y-89145838D01*
X193653804Y-89205971D01*
X193646885Y-89211967D01*
X193577631Y-89267635D01*
X193458392Y-89415974D01*
X193458390Y-89415977D01*
X193373831Y-89586476D01*
X193373828Y-89586484D01*
X193344834Y-89703070D01*
X193309552Y-89763377D01*
X193247266Y-89795035D01*
X193177752Y-89787994D01*
X193123081Y-89744488D01*
X193100609Y-89678331D01*
X193100500Y-89673143D01*
X193100500Y-88558921D01*
X193120185Y-88491882D01*
X193172989Y-88446127D01*
X193242147Y-88436183D01*
X193305703Y-88465208D01*
G37*
%TD.AperFunction*%
%TA.AperFunction,Conductor*%
G36*
X193229901Y-86090733D02*
G01*
X193242147Y-86088973D01*
X193263267Y-86098618D01*
X193285860Y-86103957D01*
X193294449Y-86112858D01*
X193305703Y-86117998D01*
X193318255Y-86137530D01*
X193334375Y-86154236D01*
X193340926Y-86172807D01*
X193343477Y-86176776D01*
X193346117Y-86187520D01*
X193355261Y-86233489D01*
X193355264Y-86233501D01*
X193415602Y-86379172D01*
X193415609Y-86379185D01*
X193503210Y-86510288D01*
X193503213Y-86510292D01*
X193614710Y-86621789D01*
X193688474Y-86671076D01*
X193733279Y-86724688D01*
X193741986Y-86794013D01*
X193711832Y-86857040D01*
X193697270Y-86870825D01*
X193577280Y-86967277D01*
X193577276Y-86967280D01*
X193457969Y-87115704D01*
X193457967Y-87115707D01*
X193373360Y-87286302D01*
X193370078Y-87299500D01*
X193346234Y-87395381D01*
X193344835Y-87401005D01*
X193309552Y-87461312D01*
X193247267Y-87492970D01*
X193177753Y-87485929D01*
X193123081Y-87442423D01*
X193100609Y-87376266D01*
X193100500Y-87371078D01*
X193100500Y-86211711D01*
X193107040Y-86189435D01*
X193109110Y-86166311D01*
X193116700Y-86156540D01*
X193120185Y-86144672D01*
X193137727Y-86129471D01*
X193151973Y-86111133D01*
X193163641Y-86107016D01*
X193172989Y-86098917D01*
X193195967Y-86095612D01*
X193217863Y-86087889D01*
X193229901Y-86090733D01*
G37*
%TD.AperFunction*%
%TA.AperFunction,Conductor*%
G36*
X193305703Y-84740208D02*
G01*
X193343477Y-84798986D01*
X193344835Y-84803995D01*
X193373360Y-84918696D01*
X193457967Y-85089292D01*
X193457969Y-85089295D01*
X193577277Y-85237721D01*
X193578557Y-85239001D01*
X193579088Y-85239974D01*
X193581490Y-85242962D01*
X193580954Y-85243392D01*
X193612042Y-85300324D01*
X193607058Y-85370016D01*
X193578558Y-85414363D01*
X193503210Y-85489711D01*
X193415609Y-85620814D01*
X193415602Y-85620827D01*
X193355264Y-85766498D01*
X193355261Y-85766508D01*
X193346117Y-85812480D01*
X193313732Y-85874391D01*
X193253016Y-85908965D01*
X193183246Y-85905224D01*
X193126575Y-85864358D01*
X193100993Y-85799340D01*
X193100500Y-85788288D01*
X193100500Y-84833921D01*
X193120185Y-84766882D01*
X193172989Y-84721127D01*
X193242147Y-84711183D01*
X193305703Y-84740208D01*
G37*
%TD.AperFunction*%
%TA.AperFunction,Conductor*%
G36*
X193305703Y-82440208D02*
G01*
X193343477Y-82498986D01*
X193344831Y-82503981D01*
X193372097Y-82613617D01*
X193373360Y-82618696D01*
X193457967Y-82789292D01*
X193457969Y-82789295D01*
X193577277Y-82937721D01*
X193577278Y-82937722D01*
X193646486Y-82993353D01*
X193686405Y-83050696D01*
X193688985Y-83120518D01*
X193653406Y-83180651D01*
X193646486Y-83186647D01*
X193577278Y-83242277D01*
X193577277Y-83242278D01*
X193457969Y-83390704D01*
X193457967Y-83390707D01*
X193373360Y-83561302D01*
X193344835Y-83676005D01*
X193309552Y-83736312D01*
X193247267Y-83767970D01*
X193177753Y-83760929D01*
X193123081Y-83717423D01*
X193100609Y-83651266D01*
X193100500Y-83646078D01*
X193100500Y-82533921D01*
X193120185Y-82466882D01*
X193172989Y-82421127D01*
X193242147Y-82411183D01*
X193305703Y-82440208D01*
G37*
%TD.AperFunction*%
%TA.AperFunction,Conductor*%
G36*
X193227023Y-80111292D02*
G01*
X193242147Y-80109118D01*
X193260671Y-80117577D01*
X193280685Y-80121316D01*
X193291802Y-80131794D01*
X193305703Y-80138143D01*
X193316712Y-80155274D01*
X193331529Y-80169240D01*
X193341620Y-80194032D01*
X193343477Y-80196921D01*
X193344835Y-80201929D01*
X193373831Y-80318523D01*
X193458390Y-80489022D01*
X193458392Y-80489025D01*
X193577630Y-80637364D01*
X193646884Y-80693031D01*
X193686803Y-80750375D01*
X193689383Y-80820197D01*
X193653805Y-80880329D01*
X193646885Y-80886326D01*
X193577276Y-80942280D01*
X193457969Y-81090704D01*
X193457967Y-81090707D01*
X193373360Y-81261302D01*
X193344835Y-81376005D01*
X193309552Y-81436312D01*
X193247267Y-81467970D01*
X193177753Y-81460929D01*
X193123081Y-81417423D01*
X193100609Y-81351266D01*
X193100500Y-81346078D01*
X193100500Y-80231856D01*
X193106236Y-80212318D01*
X193107089Y-80191974D01*
X193115880Y-80179476D01*
X193120185Y-80164817D01*
X193135572Y-80151483D01*
X193147289Y-80134828D01*
X193161442Y-80129066D01*
X193172989Y-80119062D01*
X193193141Y-80116164D01*
X193212003Y-80108487D01*
X193227023Y-80111292D01*
G37*
%TD.AperFunction*%
%TA.AperFunction,Conductor*%
G36*
X198504230Y-69458913D02*
G01*
X198533497Y-69464859D01*
X198537396Y-69468652D01*
X198542615Y-69470185D01*
X198562167Y-69492749D01*
X198583578Y-69513578D01*
X198584807Y-69518877D01*
X198588370Y-69522989D01*
X198592620Y-69552550D01*
X198599370Y-69581640D01*
X198597867Y-69589038D01*
X198598314Y-69592147D01*
X198594159Y-69607288D01*
X198592344Y-69616228D01*
X198590813Y-69620509D01*
X198590606Y-69620821D01*
X198530263Y-69766503D01*
X198519741Y-69819394D01*
X198516670Y-69827990D01*
X198475574Y-69884495D01*
X198438222Y-69904192D01*
X198339974Y-69936116D01*
X198164594Y-70025476D01*
X198073741Y-70091485D01*
X198005354Y-70141172D01*
X198005352Y-70141174D01*
X198005351Y-70141174D01*
X197866174Y-70280351D01*
X197866174Y-70280352D01*
X197866172Y-70280354D01*
X197807273Y-70361421D01*
X197754318Y-70434307D01*
X197698988Y-70476972D01*
X197629374Y-70482951D01*
X197567579Y-70450345D01*
X197533222Y-70389506D01*
X197530000Y-70361421D01*
X197530000Y-70297172D01*
X197529999Y-70297155D01*
X197523598Y-70237627D01*
X197523596Y-70237620D01*
X197473354Y-70102913D01*
X197473350Y-70102906D01*
X197387190Y-69987812D01*
X197387187Y-69987809D01*
X197272093Y-69901649D01*
X197272086Y-69901645D01*
X197137379Y-69851403D01*
X197137372Y-69851401D01*
X197077844Y-69845000D01*
X196530000Y-69845000D01*
X196530000Y-71411988D01*
X196472993Y-71379075D01*
X196345826Y-71345000D01*
X196214174Y-71345000D01*
X196087007Y-71379075D01*
X196030000Y-71411988D01*
X196030000Y-69845000D01*
X195482155Y-69845000D01*
X195422627Y-69851401D01*
X195422620Y-69851403D01*
X195287913Y-69901645D01*
X195287906Y-69901649D01*
X195172812Y-69987809D01*
X195172809Y-69987812D01*
X195086649Y-70102906D01*
X195086645Y-70102913D01*
X195036403Y-70237620D01*
X195036401Y-70237627D01*
X195030000Y-70297155D01*
X195030000Y-71595000D01*
X195846988Y-71595000D01*
X195814075Y-71652007D01*
X195780000Y-71779174D01*
X195780000Y-71910826D01*
X195814075Y-72037993D01*
X195846988Y-72095000D01*
X195030000Y-72095000D01*
X195030000Y-73392844D01*
X195036401Y-73452372D01*
X195036403Y-73452379D01*
X195086645Y-73587086D01*
X195086649Y-73587093D01*
X195172809Y-73702187D01*
X195172812Y-73702190D01*
X195287906Y-73788350D01*
X195287913Y-73788354D01*
X195422620Y-73838596D01*
X195422627Y-73838598D01*
X195482155Y-73844999D01*
X195482172Y-73845000D01*
X196030000Y-73845000D01*
X196030000Y-72278012D01*
X196087007Y-72310925D01*
X196214174Y-72345000D01*
X196345826Y-72345000D01*
X196472993Y-72310925D01*
X196530000Y-72278012D01*
X196530000Y-73845000D01*
X197077828Y-73845000D01*
X197077844Y-73844999D01*
X197137372Y-73838598D01*
X197137379Y-73838596D01*
X197272086Y-73788354D01*
X197272093Y-73788350D01*
X197387187Y-73702190D01*
X197387190Y-73702187D01*
X197473350Y-73587093D01*
X197473354Y-73587086D01*
X197523596Y-73452379D01*
X197523598Y-73452372D01*
X197529999Y-73392844D01*
X197530000Y-73392827D01*
X197530000Y-73328578D01*
X197549685Y-73261539D01*
X197602489Y-73215784D01*
X197671647Y-73205840D01*
X197735203Y-73234865D01*
X197754314Y-73255688D01*
X197866172Y-73409646D01*
X198005354Y-73548828D01*
X198164595Y-73664524D01*
X198202362Y-73683767D01*
X198339970Y-73753882D01*
X198339972Y-73753882D01*
X198339975Y-73753884D01*
X198440317Y-73786487D01*
X198527173Y-73814709D01*
X198721578Y-73845500D01*
X198721583Y-73845500D01*
X198918422Y-73845500D01*
X199112826Y-73814709D01*
X199300025Y-73753884D01*
X199475405Y-73664524D01*
X199572104Y-73594267D01*
X199637909Y-73570788D01*
X199705963Y-73586613D01*
X199732670Y-73606905D01*
X201788181Y-75662416D01*
X201821666Y-75723739D01*
X201824500Y-75750097D01*
X201824500Y-79416563D01*
X201804815Y-79483602D01*
X201752011Y-79529357D01*
X201689528Y-79540077D01*
X201688278Y-79539966D01*
X201683037Y-79539500D01*
X201683032Y-79539500D01*
X200566971Y-79539500D01*
X200566965Y-79539500D01*
X200566964Y-79539501D01*
X200560485Y-79540077D01*
X200447584Y-79550113D01*
X200251954Y-79606089D01*
X200211779Y-79627075D01*
X200071593Y-79700302D01*
X200071591Y-79700303D01*
X200071590Y-79700304D01*
X199913890Y-79828890D01*
X199785304Y-79986590D01*
X199785302Y-79986593D01*
X199770130Y-80015639D01*
X199691089Y-80166954D01*
X199672519Y-80231856D01*
X199637284Y-80355000D01*
X199635114Y-80362583D01*
X199635113Y-80362586D01*
X199624500Y-80481966D01*
X199624500Y-81215500D01*
X199604815Y-81282539D01*
X199552011Y-81328294D01*
X199500500Y-81339500D01*
X196574098Y-81339500D01*
X196507059Y-81319815D01*
X196461304Y-81267011D01*
X196451360Y-81197853D01*
X196480385Y-81134297D01*
X196486417Y-81127819D01*
X196523532Y-81090704D01*
X196605520Y-81008716D01*
X196684577Y-80871784D01*
X196725501Y-80719057D01*
X196725501Y-80560942D01*
X196725501Y-80553347D01*
X196725500Y-80553329D01*
X196725500Y-78645944D01*
X196725499Y-78645940D01*
X196724613Y-78642632D01*
X196718894Y-78621287D01*
X196684577Y-78493215D01*
X196655639Y-78443095D01*
X196605520Y-78356284D01*
X196493716Y-78244480D01*
X196493715Y-78244479D01*
X196489385Y-78240149D01*
X196489374Y-78240139D01*
X195637590Y-77388355D01*
X195637588Y-77388352D01*
X195518717Y-77269481D01*
X195518716Y-77269480D01*
X195431904Y-77219360D01*
X195431904Y-77219359D01*
X195431900Y-77219358D01*
X195381785Y-77190423D01*
X195229057Y-77149499D01*
X195070943Y-77149499D01*
X195063347Y-77149499D01*
X195063331Y-77149500D01*
X194929766Y-77149500D01*
X194862727Y-77129815D01*
X194860875Y-77128602D01*
X194729185Y-77040609D01*
X194729172Y-77040602D01*
X194583501Y-76980264D01*
X194583489Y-76980261D01*
X194428845Y-76949500D01*
X194428842Y-76949500D01*
X194271158Y-76949500D01*
X194271155Y-76949500D01*
X194116510Y-76980261D01*
X194116498Y-76980264D01*
X193970827Y-77040602D01*
X193970814Y-77040609D01*
X193839711Y-77128210D01*
X193839707Y-77128213D01*
X193728213Y-77239707D01*
X193728210Y-77239711D01*
X193640609Y-77370814D01*
X193640602Y-77370827D01*
X193580264Y-77516498D01*
X193580261Y-77516510D01*
X193549500Y-77671153D01*
X193549500Y-77828846D01*
X193580261Y-77983489D01*
X193580264Y-77983501D01*
X193640602Y-78129172D01*
X193640609Y-78129185D01*
X193728210Y-78260288D01*
X193728213Y-78260292D01*
X193781277Y-78313356D01*
X193814762Y-78374679D01*
X193809778Y-78444371D01*
X193767906Y-78500304D01*
X193748695Y-78512123D01*
X193725976Y-78523391D01*
X193725974Y-78523392D01*
X193577633Y-78642632D01*
X193577632Y-78642633D01*
X193458392Y-78790974D01*
X193458390Y-78790977D01*
X193373831Y-78961476D01*
X193373828Y-78961484D01*
X193344834Y-79078070D01*
X193309552Y-79138377D01*
X193247266Y-79170035D01*
X193177752Y-79162994D01*
X193123081Y-79119488D01*
X193100609Y-79053331D01*
X193100500Y-79048143D01*
X193100500Y-74574500D01*
X193120185Y-74507461D01*
X193172989Y-74461706D01*
X193224500Y-74450500D01*
X193283768Y-74450500D01*
X193283769Y-74450499D01*
X193448082Y-74417816D01*
X193602863Y-74353703D01*
X193742162Y-74260626D01*
X193860626Y-74142162D01*
X193953703Y-74002863D01*
X194017816Y-73848082D01*
X194050500Y-73683767D01*
X194050500Y-69574500D01*
X194070185Y-69507461D01*
X194122989Y-69461706D01*
X194174500Y-69450500D01*
X198475576Y-69450500D01*
X198504230Y-69458913D01*
G37*
%TD.AperFunction*%
%TD*%
M02*
